<svg xmlns="http://www.w3.org/2000/svg" xmlns:xlink="http://www.w3.org/1999/xlink" width="663" height="237" viewBox="0 0 663 237"><defs><clipPath id="b"><rect width="663" height="237"/></clipPath></defs><g id="a" clip-path="url(#b)"><rect width="663" height="237" fill="#fff"/><g transform="translate(-341 -494)"><g transform="translate(179 62)"><g transform="translate(656 511)" fill="#1e191c" stroke="#120303" stroke-width="1"><rect width="70" height="70" stroke="none"/><rect x="0.5" y="0.5" width="69" height="69" fill="none"/></g><g transform="translate(739 511)" fill="#1e191c" stroke="#120303" stroke-width="1"><rect width="70" height="70" stroke="none"/><rect x="0.5" y="0.5" width="69" height="69" fill="none"/></g><text transform="translate(682 623)" fill="#bca8b3" font-size="16" font-family="WorkSans-Medium, Work Sans" font-weight="500"><tspan x="0" y="15">Other room</tspan></text><g transform="translate(-7)"><g transform="translate(-34)"><g transform="translate(520 511)" fill="#cf8eb5" stroke="#120303" stroke-width="1"><rect width="70" height="70" stroke="none"/><rect x="0.5" y="0.5" width="69" height="69" fill="none"/></g><g transform="translate(544.706 523.353)" fill="#72b1f0" stroke="#000" stroke-width="1"><circle cx="10.294" cy="10.294" r="10.294" stroke="none"/><circle cx="10.294" cy="10.294" r="9.794" fill="none"/></g><g transform="translate(544.706 550.804)" fill="#72b1f0" stroke="#000" stroke-width="1"><circle cx="10.294" cy="10.294" r="10.294" stroke="none"/><circle cx="10.294" cy="10.294" r="9.794" fill="none"/></g></g><text transform="translate(481 623)" fill="#ff8ad0" font-size="16" font-family="WorkSans-Medium, Work Sans" font-weight="500"><tspan x="2.98" y="15">Bedroom, </tspan><tspan x="6.74" y="34">crowded</tspan></text><line y2="21.828" transform="translate(521.5 593.5)" fill="none" stroke="#535567" stroke-width="1"/></g><g transform="translate(-8)"><g transform="translate(576 511)" fill="#cbcdde" stroke="#120303" stroke-width="1"><rect width="70" height="70" stroke="none"/><rect x="0.5" y="0.5" width="69" height="69" fill="none"/></g><g transform="translate(599.333 535.706)" fill="#fff" stroke="#000" stroke-width="1"><circle cx="10.294" cy="10.294" r="10.294" stroke="none"/><circle cx="10.294" cy="10.294" r="9.794" fill="none"/></g></g><text transform="translate(567 638)" fill="#cbcdde" font-size="16" font-family="WorkSans-Medium, Work Sans" font-weight="500"><tspan x="0" y="0">Bedroom</tspan></text><line y2="21.828" transform="translate(603.5 593.5)" fill="none" stroke="#535567" stroke-width="1"/><line y2="21.828" transform="translate(699.5 593.5)" fill="none" stroke="#535567" stroke-width="1"/><line y2="21.828" transform="translate(752.5 593.5)" fill="none" stroke="#535567" stroke-width="1"/></g><g transform="translate(107 1)"><text transform="translate(278 566)" fill="#72b1f0" font-size="16" font-family="WorkSans-Regular, Work Sans"><tspan x="0" y="0">Adult (2)</tspan></text><g transform="translate(239.706 552.353)" fill="#72b1f0" stroke="#000" stroke-width="1"><circle cx="8.5" cy="8.5" r="8.5" stroke="none"/><circle cx="8.5" cy="8.5" r="8" fill="none"/></g><text transform="translate(278 603)" fill="#fff" font-size="16" font-family="WorkSans-Regular, Work Sans"><tspan x="0" y="0">Child (1)</tspan></text><g transform="translate(239.706 590.353)" fill="#fff" stroke="#000" stroke-width="1"><circle cx="8.5" cy="8.5" r="8.5" stroke="none"/><circle cx="8.5" cy="8.5" r="8" fill="none"/></g><text transform="translate(278 643)" fill="#e4c4d7" font-size="16" font-family="WorkSans-Regular, Work Sans"><tspan x="0" y="0">Bedroom, crowded (1)</tspan></text><g transform="translate(240 629)" fill="#cf8eb5" stroke="#000" stroke-width="1"><rect width="18" height="18" stroke="none"/><rect x="0.5" y="0.5" width="17" height="17" fill="none"/></g><text transform="translate(278 681)" fill="#cbcdde" font-size="16" font-family="WorkSans-Regular, Work Sans"><tspan x="0" y="0">Bedroom, standard (1)</tspan></text><g transform="translate(240 667)" fill="#cbcdde" stroke="#000" stroke-width="1"><rect width="18" height="18" stroke="none"/><rect x="0.5" y="0.5" width="17" height="17" fill="none"/></g><text transform="translate(278 718)" fill="#bca8b3" font-size="16" font-family="WorkSans-Regular, Work Sans"><tspan x="0" y="0">Other room (1)</tspan></text><g transform="translate(240 704)" fill="#1e191c" stroke="#000" stroke-width="1"><rect width="18" height="18" stroke="none"/><rect x="0.5" y="0.5" width="17" height="17" fill="none"/></g></g><text transform="translate(347 511)" fill="#e6e0e0" font-size="18" font-family="WorkSans-Regular, Work Sans"><tspan x="0" y="0">2 adults and 1 child living in a 2 bedroom apartment with 2 other rooms</tspan></text></g></g></svg>