<svg xmlns="http://www.w3.org/2000/svg" xmlns:xlink="http://www.w3.org/1999/xlink" width="50" height="68" viewBox="0 0 50 68">
  <defs>
    <clipPath id="clip-building-7">
      <rect width="50" height="68"/>
    </clipPath>
  </defs>
  <g id="building-7" clip-path="url(#clip-building-7)">
    <path id="Path_92" data-name="Path 92" d="M0,0H36V53.35H0Z" transform="translate(7 10)" fill="#cbcdde"/>
    <g id="Rectangle_488" data-name="Rectangle 488" transform="translate(6 9)" fill="#1e191c" stroke="#1e191c" stroke-width="1">
      <rect width="14.794" height="1.01" stroke="none"/>
      <rect x="0.5" y="0.5" width="13.794" height="0.01" fill="none"/>
    </g>
    <g id="Rectangle_488-2" data-name="Rectangle 488" transform="translate(17.603 9)" fill="#1e191c" stroke="#1e191c" stroke-width="1">
      <rect width="14.794" height="1.01" stroke="none"/>
      <rect x="0.5" y="0.5" width="13.794" height="0.01" fill="none"/>
    </g>
    <g id="Rectangle_488-3" data-name="Rectangle 488" transform="translate(29.206 9)" fill="#1e191c" stroke="#1e191c" stroke-width="1">
      <rect width="14.794" height="1.01" stroke="none"/>
      <rect x="0.5" y="0.5" width="13.794" height="0.01" fill="none"/>
    </g>
    <rect id="Rectangle_331" data-name="Rectangle 331" width="4.224" height="5.689" transform="translate(23.244 57.646)" fill="#1e191c"/>
    <ellipse id="Ellipse_257" data-name="Ellipse 257" cx="0.237" cy="0.247" rx="0.237" ry="0.247" transform="translate(26.758 60.243)" fill="#e0e0e0"/>
    <rect id="Rectangle_332" data-name="Rectangle 332" width="8.208" height="0.84" transform="translate(9.507 18.043)" fill="#1e191c" opacity="0.1"/>
    <rect id="Rectangle_333" data-name="Rectangle 333" width="7.336" height="4.812" transform="translate(9.943 13.574)" fill="#1e191c"/>
    <rect id="Rectangle_335" data-name="Rectangle 335" width="7.336" height="1.909" transform="translate(9.943 13.574)" fill="#1e191c"/>
    <rect id="Rectangle_332-2" data-name="Rectangle 332" width="8.208" height="0.84" transform="translate(21.507 18.043)" fill="#1e191c" opacity="0.1"/>
    <rect id="Rectangle_333-2" data-name="Rectangle 333" width="7.336" height="4.812" transform="translate(21.943 13.574)" fill="#1e191c"/>
    <rect id="Rectangle_335-2" data-name="Rectangle 335" width="7.336" height="1.909" transform="translate(21.943 13.574)" fill="#1e191c"/>
    <rect id="Rectangle_332-3" data-name="Rectangle 332" width="8.208" height="0.84" transform="translate(32.507 18.043)" fill="#1e191c" opacity="0.1"/>
    <rect id="Rectangle_333-3" data-name="Rectangle 333" width="7.336" height="4.812" transform="translate(32.943 13.574)" fill="#1e191c"/>
    <rect id="Rectangle_335-3" data-name="Rectangle 335" width="7.336" height="1.909" transform="translate(32.943 13.574)" fill="#1e191c"/>
    <rect id="Rectangle_332-4" data-name="Rectangle 332" width="8.208" height="0.84" transform="translate(9.507 26.774)" fill="#1e191c" opacity="0.1"/>
    <rect id="Rectangle_333-4" data-name="Rectangle 333" width="7.336" height="4.812" transform="translate(9.943 22.307)" fill="#1e191c"/>
    <rect id="Rectangle_335-4" data-name="Rectangle 335" width="7.336" height="1.909" transform="translate(9.943 22.307)" fill="#1e191c"/>
    <rect id="Rectangle_332-5" data-name="Rectangle 332" width="8.208" height="0.84" transform="translate(21.507 26.774)" fill="#1e191c" opacity="0.1"/>
    <rect id="Rectangle_333-5" data-name="Rectangle 333" width="7.336" height="4.812" transform="translate(21.943 22.307)" fill="#1e191c"/>
    <rect id="Rectangle_335-5" data-name="Rectangle 335" width="7.336" height="1.909" transform="translate(21.943 22.307)" fill="#1e191c"/>
    <rect id="Rectangle_332-6" data-name="Rectangle 332" width="8.208" height="0.84" transform="translate(32.507 26.774)" fill="#1e191c" opacity="0.1"/>
    <rect id="Rectangle_333-6" data-name="Rectangle 333" width="7.336" height="4.812" transform="translate(32.943 22.307)" fill="#1e191c"/>
    <rect id="Rectangle_335-6" data-name="Rectangle 335" width="7.336" height="1.909" transform="translate(32.943 22.307)" fill="#1e191c"/>
    <rect id="Rectangle_332-7" data-name="Rectangle 332" width="8.208" height="0.84" transform="translate(9.507 35.506)" fill="#1e191c" opacity="0.1"/>
    <rect id="Rectangle_333-7" data-name="Rectangle 333" width="7.336" height="4.812" transform="translate(9.943 31.037)" fill="#1e191c"/>
    <rect id="Rectangle_335-7" data-name="Rectangle 335" width="7.336" height="1.909" transform="translate(9.943 31.037)" fill="#1e191c"/>
    <rect id="Rectangle_332-8" data-name="Rectangle 332" width="8.208" height="0.84" transform="translate(21.507 35.506)" fill="#1e191c" opacity="0.1"/>
    <rect id="Rectangle_333-8" data-name="Rectangle 333" width="7.336" height="4.812" transform="translate(21.943 31.037)" fill="#1e191c"/>
    <rect id="Rectangle_335-8" data-name="Rectangle 335" width="7.336" height="1.909" transform="translate(21.943 31.037)" fill="#1e191c"/>
    <rect id="Rectangle_332-9" data-name="Rectangle 332" width="8.208" height="0.84" transform="translate(32.507 35.506)" fill="#1e191c" opacity="0.1"/>
    <rect id="Rectangle_333-9" data-name="Rectangle 333" width="7.336" height="4.812" transform="translate(32.943 31.037)" fill="#1e191c"/>
    <rect id="Rectangle_335-9" data-name="Rectangle 335" width="7.336" height="1.909" transform="translate(32.943 31.037)" fill="#1e191c"/>
    <rect id="Rectangle_332-10" data-name="Rectangle 332" width="8.208" height="0.84" transform="translate(9.507 44.237)" fill="#1e191c" opacity="0.1"/>
    <rect id="Rectangle_333-10" data-name="Rectangle 333" width="7.336" height="4.812" transform="translate(9.943 39.77)" fill="#1e191c"/>
    <rect id="Rectangle_335-10" data-name="Rectangle 335" width="7.336" height="1.909" transform="translate(9.943 39.77)" fill="#1e191c"/>
    <rect id="Rectangle_332-11" data-name="Rectangle 332" width="8.208" height="0.84" transform="translate(21.507 44.237)" fill="#1e191c" opacity="0.1"/>
    <rect id="Rectangle_333-11" data-name="Rectangle 333" width="7.336" height="4.812" transform="translate(21.943 39.77)" fill="#1e191c"/>
    <rect id="Rectangle_335-11" data-name="Rectangle 335" width="7.336" height="1.909" transform="translate(21.943 39.77)" fill="#1e191c"/>
    <rect id="Rectangle_332-12" data-name="Rectangle 332" width="8.208" height="0.84" transform="translate(32.507 44.237)" fill="#1e191c" opacity="0.1"/>
    <rect id="Rectangle_333-12" data-name="Rectangle 333" width="7.336" height="4.812" transform="translate(32.943 39.77)" fill="#1e191c"/>
    <rect id="Rectangle_335-12" data-name="Rectangle 335" width="7.336" height="1.909" transform="translate(32.943 39.77)" fill="#1e191c"/>
    <rect id="Rectangle_332-13" data-name="Rectangle 332" width="8.208" height="0.84" transform="translate(9.507 52.969)" fill="#1e191c" opacity="0.1"/>
    <rect id="Rectangle_333-13" data-name="Rectangle 333" width="7.336" height="4.812" transform="translate(9.943 48.5)" fill="#1e191c"/>
    <rect id="Rectangle_335-13" data-name="Rectangle 335" width="7.336" height="1.909" transform="translate(9.943 48.5)" fill="#1e191c"/>
    <rect id="Rectangle_332-14" data-name="Rectangle 332" width="8.208" height="0.84" transform="translate(21.507 52.969)" fill="#1e191c" opacity="0.1"/>
    <rect id="Rectangle_333-14" data-name="Rectangle 333" width="7.336" height="4.812" transform="translate(21.943 48.5)" fill="#1e191c"/>
    <rect id="Rectangle_335-14" data-name="Rectangle 335" width="7.336" height="1.909" transform="translate(21.943 48.5)" fill="#1e191c"/>
    <rect id="Rectangle_332-15" data-name="Rectangle 332" width="8.208" height="0.84" transform="translate(32.507 52.969)" fill="#1e191c" opacity="0.1"/>
    <rect id="Rectangle_333-15" data-name="Rectangle 333" width="7.336" height="4.812" transform="translate(32.943 48.5)" fill="#1e191c"/>
    <rect id="Rectangle_335-15" data-name="Rectangle 335" width="7.336" height="1.909" transform="translate(32.943 48.5)" fill="#1e191c"/>
    <g id="Rectangle_507" data-name="Rectangle 507" transform="translate(0 63)" fill="#cbcdde" stroke="#707070" stroke-width="1">
      <rect width="48" height="2" stroke="none"/>
      <rect x="0.5" y="0.5" width="47" height="1" fill="none"/>
    </g>
  </g>
</svg>
