<svg xmlns="http://www.w3.org/2000/svg" xmlns:xlink="http://www.w3.org/1999/xlink" width="120" height="86" viewBox="0 0 120 86">
  <defs>
    <clipPath id="clip-building-8">
      <rect width="120" height="86"/>
    </clipPath>
  </defs>
  <g id="building-8" clip-path="url(#clip-building-8)">
    <g id="Group_907" data-name="Group 907" transform="translate(-4 -12)">
      <g id="Group_905" data-name="Group 905" transform="translate(2 1)">
        <g id="Group_871" data-name="Group 871" transform="translate(7 17)">
          <g id="Group_870" data-name="Group 870" transform="translate(0 -1)">
            <g id="Group_869" data-name="Group 869">
              <rect id="Rectangle_501" data-name="Rectangle 501" width="58" height="63.35" transform="translate(2 2)" fill="#cbcdde"/>
              <g id="Group_737" data-name="Group 737" transform="translate(28.244 59.646)">
                <rect id="Rectangle_331" data-name="Rectangle 331" width="4.224" height="5.689" fill="#1e191c"/>
                <ellipse id="Ellipse_257" data-name="Ellipse 257" cx="0.237" cy="0.247" rx="0.237" ry="0.247" transform="translate(3.514 2.597)" fill="#e0e0e0"/>
              </g>
              <rect id="Rectangle_332" data-name="Rectangle 332" width="7.945" height="0.819" transform="translate(5.507 11.928)" fill="#1e191c" opacity="0.1"/>
              <rect id="Rectangle_333" data-name="Rectangle 333" width="7.101" height="4.687" transform="translate(5.929 7.574)" fill="#1e191c"/>
              <rect id="Rectangle_335" data-name="Rectangle 335" width="7.101" height="1.86" transform="translate(5.929 7.574)" fill="#1e191c"/>
              <rect id="Rectangle_332-2" data-name="Rectangle 332" width="7.945" height="0.819" transform="translate(16.156 11.928)" fill="#1e191c" opacity="0.1"/>
              <rect id="Rectangle_333-2" data-name="Rectangle 333" width="7.101" height="4.687" transform="translate(16.578 7.574)" fill="#1e191c"/>
              <rect id="Rectangle_335-2" data-name="Rectangle 335" width="7.101" height="1.86" transform="translate(16.578 7.574)" fill="#1e191c"/>
              <rect id="Rectangle_332-3" data-name="Rectangle 332" width="7.945" height="0.819" transform="translate(26.804 11.928)" fill="#1e191c" opacity="0.1"/>
              <rect id="Rectangle_333-3" data-name="Rectangle 333" width="7.101" height="4.687" transform="translate(27.227 7.574)" fill="#1e191c"/>
              <rect id="Rectangle_335-3" data-name="Rectangle 335" width="7.101" height="1.86" transform="translate(27.227 7.574)" fill="#1e191c"/>
              <rect id="Rectangle_332-4" data-name="Rectangle 332" width="7.945" height="0.819" transform="translate(37.453 11.928)" fill="#1e191c" opacity="0.1"/>
              <rect id="Rectangle_333-4" data-name="Rectangle 333" width="7.101" height="4.687" transform="translate(37.875 7.574)" fill="#1e191c"/>
              <rect id="Rectangle_335-4" data-name="Rectangle 335" width="7.101" height="1.86" transform="translate(37.875 7.574)" fill="#1e191c"/>
              <rect id="Rectangle_332-5" data-name="Rectangle 332" width="7.945" height="0.819" transform="translate(48.102 11.928)" fill="#1e191c" opacity="0.1"/>
              <rect id="Rectangle_333-5" data-name="Rectangle 333" width="7.101" height="4.687" transform="translate(48.524 7.574)" fill="#1e191c"/>
              <rect id="Rectangle_335-5" data-name="Rectangle 335" width="7.101" height="1.86" transform="translate(48.524 7.574)" fill="#1e191c"/>
              <rect id="Rectangle_332-6" data-name="Rectangle 332" width="7.945" height="0.819" transform="translate(5.507 20.434)" fill="#1e191c" opacity="0.1"/>
              <rect id="Rectangle_333-6" data-name="Rectangle 333" width="7.101" height="4.687" transform="translate(5.929 16.081)" fill="#1e191c"/>
              <rect id="Rectangle_335-6" data-name="Rectangle 335" width="7.101" height="1.86" transform="translate(5.929 16.081)" fill="#1e191c"/>
              <rect id="Rectangle_332-7" data-name="Rectangle 332" width="7.945" height="0.819" transform="translate(16.156 20.434)" fill="#1e191c" opacity="0.1"/>
              <rect id="Rectangle_333-7" data-name="Rectangle 333" width="7.101" height="4.687" transform="translate(16.578 16.081)" fill="#1e191c"/>
              <rect id="Rectangle_335-7" data-name="Rectangle 335" width="7.101" height="1.86" transform="translate(16.578 16.081)" fill="#1e191c"/>
              <rect id="Rectangle_332-8" data-name="Rectangle 332" width="7.945" height="0.819" transform="translate(26.804 20.434)" fill="#1e191c" opacity="0.1"/>
              <rect id="Rectangle_333-8" data-name="Rectangle 333" width="7.101" height="4.687" transform="translate(27.227 16.081)" fill="#1e191c"/>
              <rect id="Rectangle_335-8" data-name="Rectangle 335" width="7.101" height="1.86" transform="translate(27.227 16.081)" fill="#1e191c"/>
              <rect id="Rectangle_332-9" data-name="Rectangle 332" width="7.945" height="0.819" transform="translate(37.453 20.434)" fill="#1e191c" opacity="0.1"/>
              <rect id="Rectangle_333-9" data-name="Rectangle 333" width="7.101" height="4.687" transform="translate(37.875 16.081)" fill="#1e191c"/>
              <rect id="Rectangle_335-9" data-name="Rectangle 335" width="7.101" height="1.86" transform="translate(37.875 16.081)" fill="#1e191c"/>
              <rect id="Rectangle_332-10" data-name="Rectangle 332" width="7.945" height="0.819" transform="translate(48.102 20.434)" fill="#1e191c" opacity="0.1"/>
              <rect id="Rectangle_333-10" data-name="Rectangle 333" width="7.101" height="4.687" transform="translate(48.524 16.081)" fill="#1e191c"/>
              <rect id="Rectangle_335-10" data-name="Rectangle 335" width="7.101" height="1.86" transform="translate(48.524 16.081)" fill="#1e191c"/>
              <rect id="Rectangle_332-11" data-name="Rectangle 332" width="7.945" height="0.819" transform="translate(5.507 28.939)" fill="#1e191c" opacity="0.1"/>
              <rect id="Rectangle_333-11" data-name="Rectangle 333" width="7.101" height="4.687" transform="translate(5.929 24.587)" fill="#1e191c"/>
              <rect id="Rectangle_335-11" data-name="Rectangle 335" width="7.101" height="1.86" transform="translate(5.929 24.587)" fill="#1e191c"/>
              <rect id="Rectangle_332-12" data-name="Rectangle 332" width="7.945" height="0.819" transform="translate(16.156 28.939)" fill="#1e191c" opacity="0.1"/>
              <rect id="Rectangle_333-12" data-name="Rectangle 333" width="7.101" height="4.687" transform="translate(16.578 24.587)" fill="#1e191c"/>
              <rect id="Rectangle_335-12" data-name="Rectangle 335" width="7.101" height="1.86" transform="translate(16.578 24.587)" fill="#1e191c"/>
              <rect id="Rectangle_332-13" data-name="Rectangle 332" width="7.945" height="0.819" transform="translate(26.804 28.939)" fill="#1e191c" opacity="0.1"/>
              <rect id="Rectangle_333-13" data-name="Rectangle 333" width="7.101" height="4.687" transform="translate(27.227 24.587)" fill="#1e191c"/>
              <rect id="Rectangle_335-13" data-name="Rectangle 335" width="7.101" height="1.86" transform="translate(27.227 24.587)" fill="#1e191c"/>
              <rect id="Rectangle_332-14" data-name="Rectangle 332" width="7.945" height="0.819" transform="translate(37.453 28.939)" fill="#1e191c" opacity="0.1"/>
              <rect id="Rectangle_333-14" data-name="Rectangle 333" width="7.101" height="4.687" transform="translate(37.875 24.587)" fill="#1e191c"/>
              <rect id="Rectangle_335-14" data-name="Rectangle 335" width="7.101" height="1.86" transform="translate(37.875 24.587)" fill="#1e191c"/>
              <rect id="Rectangle_332-15" data-name="Rectangle 332" width="7.945" height="0.819" transform="translate(48.102 28.939)" fill="#1e191c" opacity="0.1"/>
              <rect id="Rectangle_333-15" data-name="Rectangle 333" width="7.101" height="4.687" transform="translate(48.524 24.587)" fill="#1e191c"/>
              <rect id="Rectangle_335-15" data-name="Rectangle 335" width="7.101" height="1.86" transform="translate(48.524 24.587)" fill="#1e191c"/>
              <rect id="Rectangle_332-16" data-name="Rectangle 332" width="7.945" height="0.819" transform="translate(5.507 37.445)" fill="#1e191c" opacity="0.1"/>
              <rect id="Rectangle_333-16" data-name="Rectangle 333" width="7.101" height="4.687" transform="translate(5.929 33.093)" fill="#1e191c"/>
              <rect id="Rectangle_335-16" data-name="Rectangle 335" width="7.101" height="1.86" transform="translate(5.929 33.093)" fill="#1e191c"/>
              <rect id="Rectangle_332-17" data-name="Rectangle 332" width="7.945" height="0.819" transform="translate(5.507 54.007)" fill="#1e191c" opacity="0.1"/>
              <rect id="Rectangle_333-17" data-name="Rectangle 333" width="7.101" height="4.687" transform="translate(5.929 49.654)" fill="#1e191c"/>
              <rect id="Rectangle_335-17" data-name="Rectangle 335" width="7.101" height="1.86" transform="translate(5.929 49.654)" fill="#1e191c"/>
              <rect id="Rectangle_332-18" data-name="Rectangle 332" width="7.945" height="0.819" transform="translate(16.156 37.445)" fill="#1e191c" opacity="0.1"/>
              <rect id="Rectangle_333-18" data-name="Rectangle 333" width="7.101" height="4.687" transform="translate(16.578 33.093)" fill="#1e191c"/>
              <rect id="Rectangle_335-18" data-name="Rectangle 335" width="7.101" height="1.86" transform="translate(16.578 33.093)" fill="#1e191c"/>
              <rect id="Rectangle_332-19" data-name="Rectangle 332" width="7.945" height="0.819" transform="translate(16.156 54.007)" fill="#1e191c" opacity="0.1"/>
              <rect id="Rectangle_333-19" data-name="Rectangle 333" width="7.101" height="4.687" transform="translate(16.578 49.654)" fill="#1e191c"/>
              <rect id="Rectangle_335-19" data-name="Rectangle 335" width="7.101" height="1.86" transform="translate(16.578 49.654)" fill="#1e191c"/>
              <rect id="Rectangle_332-20" data-name="Rectangle 332" width="7.945" height="0.819" transform="translate(26.804 37.445)" fill="#1e191c" opacity="0.1"/>
              <rect id="Rectangle_333-20" data-name="Rectangle 333" width="7.101" height="4.687" transform="translate(27.227 33.093)" fill="#1e191c"/>
              <rect id="Rectangle_335-20" data-name="Rectangle 335" width="7.101" height="1.86" transform="translate(27.227 33.093)" fill="#1e191c"/>
              <rect id="Rectangle_332-21" data-name="Rectangle 332" width="7.945" height="0.819" transform="translate(26.804 54.007)" fill="#1e191c" opacity="0.1"/>
              <rect id="Rectangle_333-21" data-name="Rectangle 333" width="7.101" height="4.687" transform="translate(27.227 49.654)" fill="#1e191c"/>
              <rect id="Rectangle_335-21" data-name="Rectangle 335" width="7.101" height="1.86" transform="translate(27.227 49.654)" fill="#1e191c"/>
              <rect id="Rectangle_332-22" data-name="Rectangle 332" width="7.945" height="0.819" transform="translate(37.453 37.445)" fill="#1e191c" opacity="0.1"/>
              <rect id="Rectangle_333-22" data-name="Rectangle 333" width="7.101" height="4.687" transform="translate(37.875 33.093)" fill="#1e191c"/>
              <rect id="Rectangle_335-22" data-name="Rectangle 335" width="7.101" height="1.86" transform="translate(37.875 33.093)" fill="#1e191c"/>
              <rect id="Rectangle_332-23" data-name="Rectangle 332" width="7.945" height="0.819" transform="translate(48.102 37.445)" fill="#1e191c" opacity="0.1"/>
              <rect id="Rectangle_333-23" data-name="Rectangle 333" width="7.101" height="4.687" transform="translate(48.524 33.093)" fill="#1e191c"/>
              <rect id="Rectangle_335-23" data-name="Rectangle 335" width="7.101" height="1.86" transform="translate(48.524 33.093)" fill="#1e191c"/>
              <rect id="Rectangle_332-24" data-name="Rectangle 332" width="7.945" height="0.819" transform="translate(37.453 54.007)" fill="#1e191c" opacity="0.1"/>
              <rect id="Rectangle_333-24" data-name="Rectangle 333" width="7.101" height="4.687" transform="translate(37.875 49.654)" fill="#1e191c"/>
              <rect id="Rectangle_335-24" data-name="Rectangle 335" width="7.101" height="1.86" transform="translate(37.875 49.654)" fill="#1e191c"/>
              <rect id="Rectangle_332-25" data-name="Rectangle 332" width="7.945" height="0.819" transform="translate(48.102 54.007)" fill="#1e191c" opacity="0.1"/>
              <rect id="Rectangle_333-25" data-name="Rectangle 333" width="7.101" height="4.687" transform="translate(48.524 49.654)" fill="#1e191c"/>
              <rect id="Rectangle_335-25" data-name="Rectangle 335" width="7.101" height="1.86" transform="translate(48.524 49.654)" fill="#1e191c"/>
              <rect id="Rectangle_332-26" data-name="Rectangle 332" width="7.945" height="0.819" transform="translate(5.507 45.951)" fill="#1e191c" opacity="0.1"/>
              <rect id="Rectangle_333-26" data-name="Rectangle 333" width="7.101" height="4.687" transform="translate(5.929 41.599)" fill="#1e191c"/>
              <rect id="Rectangle_335-26" data-name="Rectangle 335" width="7.101" height="1.86" transform="translate(5.929 41.599)" fill="#1e191c"/>
              <rect id="Rectangle_332-27" data-name="Rectangle 332" width="7.945" height="0.819" transform="translate(16.156 45.951)" fill="#1e191c" opacity="0.1"/>
              <rect id="Rectangle_333-27" data-name="Rectangle 333" width="7.101" height="4.687" transform="translate(16.578 41.599)" fill="#1e191c"/>
              <rect id="Rectangle_335-27" data-name="Rectangle 335" width="7.101" height="1.86" transform="translate(16.578 41.599)" fill="#1e191c"/>
              <rect id="Rectangle_332-28" data-name="Rectangle 332" width="7.945" height="0.819" transform="translate(26.804 45.951)" fill="#1e191c" opacity="0.1"/>
              <rect id="Rectangle_333-28" data-name="Rectangle 333" width="7.101" height="4.687" transform="translate(27.227 41.599)" fill="#1e191c"/>
              <rect id="Rectangle_335-28" data-name="Rectangle 335" width="7.101" height="1.86" transform="translate(27.227 41.599)" fill="#1e191c"/>
              <rect id="Rectangle_332-29" data-name="Rectangle 332" width="7.945" height="0.819" transform="translate(37.453 45.951)" fill="#1e191c" opacity="0.1"/>
              <rect id="Rectangle_333-29" data-name="Rectangle 333" width="7.101" height="4.687" transform="translate(37.875 41.599)" fill="#1e191c"/>
              <rect id="Rectangle_335-29" data-name="Rectangle 335" width="7.101" height="1.86" transform="translate(37.875 41.599)" fill="#1e191c"/>
              <rect id="Rectangle_332-30" data-name="Rectangle 332" width="7.945" height="0.819" transform="translate(48.102 45.951)" fill="#1e191c" opacity="0.1"/>
              <rect id="Rectangle_333-30" data-name="Rectangle 333" width="7.101" height="4.687" transform="translate(48.524 41.599)" fill="#1e191c"/>
              <rect id="Rectangle_335-30" data-name="Rectangle 335" width="7.101" height="1.86" transform="translate(48.524 41.599)" fill="#1e191c"/>
            </g>
          </g>
          <g id="Rectangle_502" data-name="Rectangle 502" fill="#cbcdde" stroke="#1e191c" stroke-width="1">
            <rect width="63" height="2" stroke="none"/>
            <rect x="0.5" y="0.5" width="62" height="1" fill="none"/>
          </g>
        </g>
      </g>
    </g>
    <g id="Rectangle_508" data-name="Rectangle 508" transform="translate(0 70)" fill="#cbcdde" stroke="#707070" stroke-width="1">
      <rect width="71" height="2" stroke="none"/>
      <rect x="0.5" y="0.5" width="70" height="1" fill="none"/>
    </g>
  </g>
</svg>
