<svg xmlns="http://www.w3.org/2000/svg" xmlns:xlink="http://www.w3.org/1999/xlink" width="33" height="36" viewBox="0 0 33 36">
  <defs>
    <linearGradient id="linear-gradient" x1="0.5" y1="1" x2="0.5" gradientUnits="objectBoundingBox">
      <stop offset="0" stop-color="gray" stop-opacity="0.251"/>
      <stop offset="0.54" stop-color="gray" stop-opacity="0.122"/>
      <stop offset="1" stop-color="gray" stop-opacity="0.102"/>
    </linearGradient>
    <linearGradient id="linear-gradient-2" x1="0.5" y1="1" x2="0.5" y2="0" xlink:href="#linear-gradient"/>
    <linearGradient id="linear-gradient-3" x1="0.5" y1="1" x2="0.5" y2="0" xlink:href="#linear-gradient"/>
    <clipPath id="clip-building-3">
      <rect width="33" height="36"/>
    </clipPath>
  </defs>
  <g id="building-3" clip-path="url(#clip-building-3)">
    <g id="undraw_houses3_xwf7" transform="translate(2.52 -67.057)">
      <g id="Group_522" data-name="Group 522" transform="translate(4.079 74.125)" opacity="0.7">
        <rect id="Rectangle_303" data-name="Rectangle 303" width="2.794" height="5.511" fill="url(#linear-gradient)"/>
      </g>
      <g id="Group_523" data-name="Group 523" transform="translate(2.57 79.183)" opacity="0.7">
        <path id="Path_42" data-name="Path 42" d="M34.809,184.214H17.9V163.53l8.528-.19,8.381.19Z" transform="translate(-17.9 -163.34)" fill="url(#linear-gradient-2)"/>
      </g>
      <g id="Group_524" data-name="Group 524" transform="translate(7.25 82.467)" opacity="0.1">
        <rect id="Rectangle_308" data-name="Rectangle 308" width="7.625" height="1.887" fill="#1e191c"/>
      </g>
      <g id="Group_525" data-name="Group 525" transform="translate(1.367 72.482)" opacity="0.7">
        <path id="Path_44" data-name="Path 44" d="M30.14,134.151l-9.311-7.2-9.012,7.2-.707-.886,9.708-7.75,10.014,7.745Z" transform="translate(-11.11 -125.51)" fill="url(#linear-gradient-3)"/>
      </g>
      <g id="Group_714" data-name="Group 714" transform="translate(1.367 72.556)">
        <g id="Group_713" data-name="Group 713" transform="translate(1.467 0.965)">
          <rect id="Rectangle_304" data-name="Rectangle 304" width="2.641" height="5.435" transform="translate(1.322 0.68)" fill="#1e191c"/>
          <path id="Path_43" data-name="Path 43" d="M35.847,157.915H19.39V137.231l8.229-5.851,8.229,5.851Z" transform="translate(-19.39 -131.38)" fill="#cbcdde"/>
          <rect id="Rectangle_305" data-name="Rectangle 305" width="4.152" height="6.944" transform="translate(6.152 19.589)" fill="#1e191c"/>
          <rect id="Rectangle_306" data-name="Rectangle 306" width="7.625" height="4.757" transform="translate(4.416 8.946)" fill="#1e191c"/>
        </g>
        <path id="Path_45" data-name="Path 45" d="M30.14,134.571l-9.311-7.2-9.012,7.2-.707-.884,9.708-7.752,10.014,7.747Z" transform="translate(-11.11 -125.93)" fill="#1e191c"/>
      </g>
      <circle id="Ellipse_256" data-name="Ellipse 256" cx="0.301" cy="0.301" r="0.301" transform="translate(12.234 96.284)" fill="#e0e0e0"/>
    </g>
    <g id="Rectangle_503" data-name="Rectangle 503" transform="translate(0 32)" fill="#cbcdde" stroke="#707070" stroke-width="1">
      <rect width="26" height="2" stroke="none"/>
      <rect x="0.5" y="0.5" width="25" height="1" fill="none"/>
    </g>
  </g>
</svg>
