<svg xmlns="http://www.w3.org/2000/svg" xmlns:xlink="http://www.w3.org/1999/xlink" width="17" height="27" viewBox="0 0 17 27">
  <defs>
    <clipPath id="clip-path">
      <rect id="Rectangle_498" data-name="Rectangle 498" width="21" height="30" transform="translate(370 257)" fill="#fff" stroke="#707070" stroke-width="1"/>
    </clipPath>
    <linearGradient id="linear-gradient" x1="0.5" y1="1" x2="0.5" gradientUnits="objectBoundingBox">
      <stop offset="0" stop-color="gray" stop-opacity="0.251"/>
      <stop offset="0.54" stop-color="gray" stop-opacity="0.122"/>
      <stop offset="1" stop-color="gray" stop-opacity="0.102"/>
    </linearGradient>
    <linearGradient id="linear-gradient-2" x1="0.5" x2="0.5" y2="0" xlink:href="#linear-gradient"/>
    <clipPath id="clip-building-2">
      <rect width="17" height="27"/>
    </clipPath>
  </defs>
  <g id="building-2" clip-path="url(#clip-building-2)">
    <g id="Mask_Group_2" data-name="Mask Group 2" transform="translate(-372 -260)" clip-path="url(#clip-path)">
      <g id="undraw_houses3_xwf7" transform="translate(-16 260)">
        <g id="Group_774" data-name="Group 774" transform="translate(390.792 0.569)" opacity="0.7">
          <rect id="Rectangle_491" data-name="Rectangle 491" width="2.266" height="4.471" fill="url(#linear-gradient)"/>
        </g>
        <g id="Group_775" data-name="Group 775" transform="translate(388.591)" opacity="0.7">
          <path id="Path_87" data-name="Path 87" d="M688.328,7.009l-7.552-5.841-7.312,5.838-.574-.717L680.766,0l8.124,6.283Z" transform="translate(-672.89)" fill="url(#linear-gradient-2)"/>
        </g>
        <rect id="Rectangle_492" data-name="Rectangle 492" width="2.144" height="4.41" transform="translate(390.853 0.63)" fill="#535461"/>
        <g id="Group_776" data-name="Group 776" transform="translate(389.598 5.958)" opacity="0.7">
          <path id="Path_88" data-name="Path 88" d="M694.468,76.435H680.75V46.79l6.918-.27,6.8.27Z" transform="translate(-680.75 -46.52)" fill="url(#linear-gradient-2)"/>
        </g>
        <path id="Path_89" data-name="Path 89" d="M695.53,43.293H682.18V13.53l6.675-5.02,6.8,5.2Z" transform="translate(-292.399 -7.42)" fill="#fff"/>
        <rect id="Rectangle_493" data-name="Rectangle 493" width="6.185" height="3.858" transform="translate(393.364 14.042)" fill="#060606" opacity="0.5"/>
        <g id="Group_777" data-name="Group 777" transform="translate(393.364 14.042)" opacity="0.1">
          <rect id="Rectangle_494" data-name="Rectangle 494" width="6.185" height="1.53"/>
        </g>
        <rect id="Rectangle_495" data-name="Rectangle 495" width="6.185" height="3.858" transform="translate(393.364 6.478)" fill="#060606" opacity="0.5"/>
        <g id="Group_778" data-name="Group 778" transform="translate(393.364 6.478)" opacity="0.1">
          <rect id="Rectangle_496" data-name="Rectangle 496" width="6.185" height="1.53"/>
        </g>
        <path id="Path_90" data-name="Path 90" d="M688.328,8.681l-7.552-5.843-7.312,5.838-.574-.717,7.876-6.288,8.124,6.283Z" transform="translate(-284.299 -1.456)" fill="#060606"/>
        <g id="Group_779" data-name="Group 779" transform="translate(0 -9)">
          <rect id="Rectangle_497" data-name="Rectangle 497" width="3.368" height="5.634" transform="translate(394.772 30.239)" fill="#535461"/>
          <circle id="Ellipse_420" data-name="Ellipse 420" cx="0.245" cy="0.245" r="0.245" transform="translate(397.406 32.811)" fill="#e0e0e0"/>
        </g>
      </g>
    </g>
  </g>
</svg>
