<svg xmlns="http://www.w3.org/2000/svg" xmlns:xlink="http://www.w3.org/1999/xlink" width="120" height="82" viewBox="0 0 120 82">
  <defs>
    <clipPath id="clip-path">
      <rect id="Rectangle_498" data-name="Rectangle 498" width="24" height="34" transform="translate(370 257)" fill="#fff" stroke="#707070" stroke-width="1"/>
    </clipPath>
    <linearGradient id="linear-gradient" x1="0.5" y1="1" x2="0.5" gradientUnits="objectBoundingBox">
      <stop offset="0" stop-color="gray" stop-opacity="0.251"/>
      <stop offset="0.54" stop-color="gray" stop-opacity="0.122"/>
      <stop offset="1" stop-color="gray" stop-opacity="0.102"/>
    </linearGradient>
    <linearGradient id="linear-gradient-2" x1="0.5" x2="0.5" y2="0" xlink:href="#linear-gradient"/>
    <clipPath id="clip-building-4">
      <rect width="120" height="82"/>
    </clipPath>
  </defs>
  <g id="building-4" clip-path="url(#clip-building-4)">
    <rect width="120" height="82" fill="#2a2c2c"/>
    <g id="Mask_Group_2" data-name="Mask Group 2" transform="translate(-322 -209)" clip-path="url(#clip-path)">
      <g id="undraw_houses3_xwf7" transform="translate(372.977 260.447)">
        <g id="Group_774" data-name="Group 774" transform="translate(2.528 0.653)" opacity="0.7">
          <rect id="Rectangle_491" data-name="Rectangle 491" width="2.603" height="5.137" fill="url(#linear-gradient)"/>
        </g>
        <g id="Group_775" data-name="Group 775" opacity="0.7">
          <path id="Path_87" data-name="Path 87" d="M690.626,8.053l-8.677-6.711-8.4,6.707-.659-.824L681.939,0l9.333,7.219Z" transform="translate(-672.89)" fill="url(#linear-gradient-2)"/>
        </g>
        <rect id="Rectangle_492" data-name="Rectangle 492" width="2.463" height="5.066" transform="translate(2.598 0.724)" fill="#535461"/>
        <g id="Group_776" data-name="Group 776" transform="translate(1.156 6.845)" opacity="0.7">
          <path id="Path_88" data-name="Path 88" d="M696.51,80.888H680.75V46.83l7.948-.31,7.812.31Z" transform="translate(-680.75 -46.52)" fill="url(#linear-gradient-2)"/>
        </g>
        <path id="Path_89" data-name="Path 89" d="M697.518,48.471H682.18V14.278l7.669-5.768,7.81,5.98Z" transform="translate(-680.813 -7.258)" fill="#fff"/>
        <rect id="Rectangle_493" data-name="Rectangle 493" width="7.105" height="4.432" transform="translate(5.484 16.132)" fill="#060606" opacity="0.5"/>
        <g id="Group_777" data-name="Group 777" transform="translate(5.484 16.132)" opacity="0.1">
          <rect id="Rectangle_494" data-name="Rectangle 494" width="7.105" height="1.758"/>
        </g>
        <rect id="Rectangle_495" data-name="Rectangle 495" width="7.105" height="4.432" transform="translate(5.484 7.442)" fill="#060606" opacity="0.5"/>
        <g id="Group_778" data-name="Group 778" transform="translate(5.484 7.442)" opacity="0.1">
          <rect id="Rectangle_496" data-name="Rectangle 496" width="7.105" height="1.758"/>
        </g>
        <path id="Path_90" data-name="Path 90" d="M690.626,9.724l-8.677-6.712-8.4,6.707-.659-.824,9.049-7.224,9.333,7.219Z" transform="translate(-672.89 -1.424)" fill="#060606"/>
        <g id="Group_779" data-name="Group 779" transform="translate(7.101 24.4)">
          <rect id="Rectangle_497" data-name="Rectangle 497" width="3.87" height="6.473" fill="#535461"/>
          <circle id="Ellipse_420" data-name="Ellipse 420" cx="0.281" cy="0.281" r="0.281" transform="translate(3.026 2.955)" fill="#e0e0e0"/>
        </g>
      </g>
    </g>
  </g>
</svg>
