<svg xmlns="http://www.w3.org/2000/svg" xmlns:xlink="http://www.w3.org/1999/xlink" width="102" height="86" viewBox="0 0 102 86">
  <defs>
    <clipPath id="clip-building-9">
      <rect width="102" height="86"/>
    </clipPath>
  </defs>
  <g id="building-9" clip-path="url(#clip-building-9)">
    <g id="Group_869" data-name="Group 869" transform="translate(5.045 2.523)">
      <rect id="Rectangle_501" data-name="Rectangle 501" width="73.681" height="75.822" fill="#cbcdde"/>
      <rect id="Rectangle_332" data-name="Rectangle 332" width="7.228" height="0.782" transform="translate(5.01 9.486)" fill="#1e191c" opacity="0.1"/>
      <rect id="Rectangle_333" data-name="Rectangle 333" width="6.46" height="4.479" transform="translate(5.394 5.327)" fill="#1e191c"/>
      <rect id="Rectangle_335" data-name="Rectangle 335" width="6.46" height="1.777" transform="translate(5.394 5.327)" fill="#1e191c"/>
      <rect id="Rectangle_332-2" data-name="Rectangle 332" width="7.228" height="0.782" transform="translate(14.696 9.486)" fill="#1e191c" opacity="0.1"/>
      <rect id="Rectangle_333-2" data-name="Rectangle 333" width="6.46" height="4.479" transform="translate(15.08 5.327)" fill="#1e191c"/>
      <rect id="Rectangle_335-2" data-name="Rectangle 335" width="6.46" height="1.777" transform="translate(15.08 5.327)" fill="#1e191c"/>
      <rect id="Rectangle_332-3" data-name="Rectangle 332" width="7.228" height="0.782" transform="translate(24.383 9.486)" fill="#1e191c" opacity="0.1"/>
      <rect id="Rectangle_333-3" data-name="Rectangle 333" width="6.46" height="4.479" transform="translate(24.767 5.327)" fill="#1e191c"/>
      <rect id="Rectangle_335-3" data-name="Rectangle 335" width="6.46" height="1.777" transform="translate(24.767 5.327)" fill="#1e191c"/>
      <rect id="Rectangle_332-4" data-name="Rectangle 332" width="7.228" height="0.782" transform="translate(34.069 9.486)" fill="#1e191c" opacity="0.1"/>
      <rect id="Rectangle_333-4" data-name="Rectangle 333" width="6.46" height="4.479" transform="translate(34.453 5.327)" fill="#1e191c"/>
      <rect id="Rectangle_335-4" data-name="Rectangle 335" width="6.46" height="1.777" transform="translate(34.453 5.327)" fill="#1e191c"/>
      <rect id="Rectangle_332-5" data-name="Rectangle 332" width="7.228" height="0.782" transform="translate(43.755 9.486)" fill="#1e191c" opacity="0.1"/>
      <rect id="Rectangle_333-5" data-name="Rectangle 333" width="6.46" height="4.479" transform="translate(44.14 5.327)" fill="#1e191c"/>
      <rect id="Rectangle_335-5" data-name="Rectangle 335" width="6.46" height="1.777" transform="translate(44.14 5.327)" fill="#1e191c"/>
      <rect id="Rectangle_332-6" data-name="Rectangle 332" width="7.228" height="0.782" transform="translate(52.852 9.486)" fill="#1e191c" opacity="0.1"/>
      <rect id="Rectangle_333-6" data-name="Rectangle 333" width="6.46" height="4.479" transform="translate(53.236 5.327)" fill="#1e191c"/>
      <rect id="Rectangle_335-6" data-name="Rectangle 335" width="6.46" height="1.777" transform="translate(53.236 5.327)" fill="#1e191c"/>
      <rect id="Rectangle_332-7" data-name="Rectangle 332" width="7.228" height="0.782" transform="translate(62.858 9.486)" fill="#1e191c" opacity="0.1"/>
      <rect id="Rectangle_333-7" data-name="Rectangle 333" width="6.46" height="4.479" transform="translate(63.242 5.327)" fill="#1e191c"/>
      <rect id="Rectangle_335-7" data-name="Rectangle 335" width="6.46" height="1.777" transform="translate(63.242 5.327)" fill="#1e191c"/>
      <rect id="Rectangle_332-8" data-name="Rectangle 332" width="7.228" height="0.782" transform="translate(5.01 17.614)" fill="#1e191c" opacity="0.1"/>
      <rect id="Rectangle_333-8" data-name="Rectangle 333" width="6.46" height="4.479" transform="translate(5.394 13.455)" fill="#1e191c"/>
      <rect id="Rectangle_335-8" data-name="Rectangle 335" width="6.46" height="1.777" transform="translate(5.394 13.455)" fill="#1e191c"/>
      <rect id="Rectangle_332-9" data-name="Rectangle 332" width="7.228" height="0.782" transform="translate(14.696 17.614)" fill="#1e191c" opacity="0.1"/>
      <rect id="Rectangle_333-9" data-name="Rectangle 333" width="6.46" height="4.479" transform="translate(15.08 13.455)" fill="#1e191c"/>
      <rect id="Rectangle_335-9" data-name="Rectangle 335" width="6.46" height="1.777" transform="translate(15.08 13.455)" fill="#1e191c"/>
      <rect id="Rectangle_332-10" data-name="Rectangle 332" width="7.228" height="0.782" transform="translate(24.383 17.614)" fill="#1e191c" opacity="0.1"/>
      <rect id="Rectangle_333-10" data-name="Rectangle 333" width="6.46" height="4.479" transform="translate(24.767 13.455)" fill="#1e191c"/>
      <rect id="Rectangle_335-10" data-name="Rectangle 335" width="6.46" height="1.777" transform="translate(24.767 13.455)" fill="#1e191c"/>
      <rect id="Rectangle_332-11" data-name="Rectangle 332" width="7.228" height="0.782" transform="translate(34.069 17.614)" fill="#1e191c" opacity="0.1"/>
      <rect id="Rectangle_333-11" data-name="Rectangle 333" width="6.46" height="4.479" transform="translate(34.453 13.455)" fill="#1e191c"/>
      <rect id="Rectangle_335-11" data-name="Rectangle 335" width="6.46" height="1.777" transform="translate(34.453 13.455)" fill="#1e191c"/>
      <rect id="Rectangle_332-12" data-name="Rectangle 332" width="7.228" height="0.782" transform="translate(43.755 17.614)" fill="#1e191c" opacity="0.1"/>
      <rect id="Rectangle_333-12" data-name="Rectangle 333" width="6.46" height="4.479" transform="translate(44.14 13.455)" fill="#1e191c"/>
      <rect id="Rectangle_335-12" data-name="Rectangle 335" width="6.46" height="1.777" transform="translate(44.14 13.455)" fill="#1e191c"/>
      <rect id="Rectangle_332-13" data-name="Rectangle 332" width="7.228" height="0.782" transform="translate(52.852 17.614)" fill="#1e191c" opacity="0.1"/>
      <rect id="Rectangle_333-13" data-name="Rectangle 333" width="6.46" height="4.479" transform="translate(53.236 13.455)" fill="#1e191c"/>
      <rect id="Rectangle_335-13" data-name="Rectangle 335" width="6.46" height="1.777" transform="translate(53.236 13.455)" fill="#1e191c"/>
      <rect id="Rectangle_332-14" data-name="Rectangle 332" width="7.228" height="0.782" transform="translate(62.858 17.614)" fill="#1e191c" opacity="0.1"/>
      <rect id="Rectangle_333-14" data-name="Rectangle 333" width="6.46" height="4.479" transform="translate(63.242 13.455)" fill="#1e191c"/>
      <rect id="Rectangle_335-14" data-name="Rectangle 335" width="6.46" height="1.777" transform="translate(63.242 13.455)" fill="#1e191c"/>
      <rect id="Rectangle_332-15" data-name="Rectangle 332" width="7.228" height="0.782" transform="translate(5.01 25.741)" fill="#1e191c" opacity="0.1"/>
      <rect id="Rectangle_333-15" data-name="Rectangle 333" width="6.46" height="4.479" transform="translate(5.394 21.582)" fill="#1e191c"/>
      <rect id="Rectangle_335-15" data-name="Rectangle 335" width="6.46" height="1.777" transform="translate(5.394 21.582)" fill="#1e191c"/>
      <rect id="Rectangle_332-16" data-name="Rectangle 332" width="7.228" height="0.782" transform="translate(14.696 25.741)" fill="#1e191c" opacity="0.1"/>
      <rect id="Rectangle_333-16" data-name="Rectangle 333" width="6.46" height="4.479" transform="translate(15.08 21.582)" fill="#1e191c"/>
      <rect id="Rectangle_335-16" data-name="Rectangle 335" width="6.46" height="1.777" transform="translate(15.08 21.582)" fill="#1e191c"/>
      <rect id="Rectangle_332-17" data-name="Rectangle 332" width="7.228" height="0.782" transform="translate(24.383 25.741)" fill="#1e191c" opacity="0.1"/>
      <rect id="Rectangle_333-17" data-name="Rectangle 333" width="6.46" height="4.479" transform="translate(24.767 21.582)" fill="#1e191c"/>
      <rect id="Rectangle_335-17" data-name="Rectangle 335" width="6.46" height="1.777" transform="translate(24.767 21.582)" fill="#1e191c"/>
      <rect id="Rectangle_332-18" data-name="Rectangle 332" width="7.228" height="0.782" transform="translate(34.069 25.741)" fill="#1e191c" opacity="0.1"/>
      <rect id="Rectangle_333-18" data-name="Rectangle 333" width="6.46" height="4.479" transform="translate(34.453 21.582)" fill="#1e191c"/>
      <rect id="Rectangle_335-18" data-name="Rectangle 335" width="6.46" height="1.777" transform="translate(34.453 21.582)" fill="#1e191c"/>
      <rect id="Rectangle_332-19" data-name="Rectangle 332" width="7.228" height="0.782" transform="translate(43.755 25.741)" fill="#1e191c" opacity="0.1"/>
      <rect id="Rectangle_333-19" data-name="Rectangle 333" width="6.46" height="4.479" transform="translate(44.14 21.582)" fill="#1e191c"/>
      <rect id="Rectangle_335-19" data-name="Rectangle 335" width="6.46" height="1.777" transform="translate(44.14 21.582)" fill="#1e191c"/>
      <rect id="Rectangle_332-20" data-name="Rectangle 332" width="7.228" height="0.782" transform="translate(52.852 25.741)" fill="#1e191c" opacity="0.1"/>
      <rect id="Rectangle_333-20" data-name="Rectangle 333" width="6.46" height="4.479" transform="translate(53.236 21.582)" fill="#1e191c"/>
      <rect id="Rectangle_335-20" data-name="Rectangle 335" width="6.46" height="1.777" transform="translate(53.236 21.582)" fill="#1e191c"/>
      <rect id="Rectangle_332-21" data-name="Rectangle 332" width="7.228" height="0.782" transform="translate(62.858 25.741)" fill="#1e191c" opacity="0.1"/>
      <rect id="Rectangle_333-21" data-name="Rectangle 333" width="6.46" height="4.479" transform="translate(63.242 21.582)" fill="#1e191c"/>
      <rect id="Rectangle_335-21" data-name="Rectangle 335" width="6.46" height="1.777" transform="translate(63.242 21.582)" fill="#1e191c"/>
      <rect id="Rectangle_332-22" data-name="Rectangle 332" width="7.228" height="0.782" transform="translate(5.01 33.869)" fill="#1e191c" opacity="0.1"/>
      <rect id="Rectangle_333-22" data-name="Rectangle 333" width="6.46" height="4.479" transform="translate(5.394 29.71)" fill="#1e191c"/>
      <rect id="Rectangle_335-22" data-name="Rectangle 335" width="6.46" height="1.777" transform="translate(5.394 29.71)" fill="#1e191c"/>
      <rect id="Rectangle_332-23" data-name="Rectangle 332" width="7.228" height="0.782" transform="translate(5.01 49.694)" fill="#1e191c" opacity="0.1"/>
      <rect id="Rectangle_333-23" data-name="Rectangle 333" width="6.46" height="4.479" transform="translate(5.394 45.535)" fill="#1e191c"/>
      <rect id="Rectangle_335-23" data-name="Rectangle 335" width="6.46" height="1.777" transform="translate(5.394 45.535)" fill="#1e191c"/>
      <rect id="Rectangle_332-24" data-name="Rectangle 332" width="7.228" height="0.782" transform="translate(5.01 57.339)" fill="#1e191c" opacity="0.1"/>
      <rect id="Rectangle_333-24" data-name="Rectangle 333" width="6.46" height="4.479" transform="translate(5.394 53.18)" fill="#1e191c"/>
      <rect id="Rectangle_335-24" data-name="Rectangle 335" width="6.46" height="1.777" transform="translate(5.394 53.18)" fill="#1e191c"/>
      <rect id="Rectangle_332-25" data-name="Rectangle 332" width="7.228" height="0.782" transform="translate(5.01 64.982)" fill="#1e191c" opacity="0.1"/>
      <rect id="Rectangle_333-25" data-name="Rectangle 333" width="6.46" height="4.479" transform="translate(5.394 60.823)" fill="#1e191c"/>
      <rect id="Rectangle_335-25" data-name="Rectangle 335" width="6.46" height="1.777" transform="translate(5.394 60.823)" fill="#1e191c"/>
      <rect id="Rectangle_332-26" data-name="Rectangle 332" width="7.228" height="0.782" transform="translate(14.696 33.869)" fill="#1e191c" opacity="0.1"/>
      <rect id="Rectangle_333-26" data-name="Rectangle 333" width="6.46" height="4.479" transform="translate(15.08 29.71)" fill="#1e191c"/>
      <rect id="Rectangle_335-26" data-name="Rectangle 335" width="6.46" height="1.777" transform="translate(15.08 29.71)" fill="#1e191c"/>
      <rect id="Rectangle_332-27" data-name="Rectangle 332" width="7.228" height="0.782" transform="translate(14.696 49.694)" fill="#1e191c" opacity="0.1"/>
      <rect id="Rectangle_333-27" data-name="Rectangle 333" width="6.46" height="4.479" transform="translate(15.08 45.535)" fill="#1e191c"/>
      <rect id="Rectangle_335-27" data-name="Rectangle 335" width="6.46" height="1.777" transform="translate(15.08 45.535)" fill="#1e191c"/>
      <rect id="Rectangle_332-28" data-name="Rectangle 332" width="7.228" height="0.782" transform="translate(14.696 57.339)" fill="#1e191c" opacity="0.1"/>
      <rect id="Rectangle_333-28" data-name="Rectangle 333" width="6.46" height="4.479" transform="translate(15.08 53.18)" fill="#1e191c"/>
      <rect id="Rectangle_335-28" data-name="Rectangle 335" width="6.46" height="1.777" transform="translate(15.08 53.18)" fill="#1e191c"/>
      <rect id="Rectangle_332-29" data-name="Rectangle 332" width="7.228" height="0.782" transform="translate(14.696 64.982)" fill="#1e191c" opacity="0.1"/>
      <rect id="Rectangle_333-29" data-name="Rectangle 333" width="6.46" height="4.479" transform="translate(15.08 60.823)" fill="#1e191c"/>
      <rect id="Rectangle_335-29" data-name="Rectangle 335" width="6.46" height="1.777" transform="translate(15.08 60.823)" fill="#1e191c"/>
      <rect id="Rectangle_332-30" data-name="Rectangle 332" width="7.228" height="0.782" transform="translate(24.383 33.869)" fill="#1e191c" opacity="0.1"/>
      <rect id="Rectangle_333-30" data-name="Rectangle 333" width="6.46" height="4.479" transform="translate(24.767 29.71)" fill="#1e191c"/>
      <rect id="Rectangle_335-30" data-name="Rectangle 335" width="6.46" height="1.777" transform="translate(24.767 29.71)" fill="#1e191c"/>
      <rect id="Rectangle_332-31" data-name="Rectangle 332" width="7.228" height="0.782" transform="translate(24.383 49.694)" fill="#1e191c" opacity="0.1"/>
      <rect id="Rectangle_333-31" data-name="Rectangle 333" width="6.46" height="4.479" transform="translate(24.767 45.535)" fill="#1e191c"/>
      <rect id="Rectangle_335-31" data-name="Rectangle 335" width="6.46" height="1.777" transform="translate(24.767 45.535)" fill="#1e191c"/>
      <rect id="Rectangle_332-32" data-name="Rectangle 332" width="7.228" height="0.782" transform="translate(24.383 57.339)" fill="#1e191c" opacity="0.1"/>
      <rect id="Rectangle_333-32" data-name="Rectangle 333" width="6.46" height="4.479" transform="translate(24.767 53.18)" fill="#1e191c"/>
      <rect id="Rectangle_335-32" data-name="Rectangle 335" width="6.46" height="1.777" transform="translate(24.767 53.18)" fill="#1e191c"/>
      <rect id="Rectangle_332-33" data-name="Rectangle 332" width="7.228" height="0.782" transform="translate(24.383 64.982)" fill="#1e191c" opacity="0.1"/>
      <rect id="Rectangle_333-33" data-name="Rectangle 333" width="6.46" height="4.479" transform="translate(24.767 60.823)" fill="#1e191c"/>
      <rect id="Rectangle_335-33" data-name="Rectangle 335" width="6.46" height="1.777" transform="translate(24.767 60.823)" fill="#1e191c"/>
      <rect id="Rectangle_332-34" data-name="Rectangle 332" width="7.228" height="0.782" transform="translate(34.069 33.869)" fill="#1e191c" opacity="0.1"/>
      <rect id="Rectangle_333-34" data-name="Rectangle 333" width="6.46" height="4.479" transform="translate(34.453 29.71)" fill="#1e191c"/>
      <rect id="Rectangle_335-34" data-name="Rectangle 335" width="6.46" height="1.777" transform="translate(34.453 29.71)" fill="#1e191c"/>
      <rect id="Rectangle_332-35" data-name="Rectangle 332" width="7.228" height="0.782" transform="translate(43.755 33.869)" fill="#1e191c" opacity="0.1"/>
      <rect id="Rectangle_333-35" data-name="Rectangle 333" width="6.46" height="4.479" transform="translate(44.14 29.71)" fill="#1e191c"/>
      <rect id="Rectangle_335-35" data-name="Rectangle 335" width="6.46" height="1.777" transform="translate(44.14 29.71)" fill="#1e191c"/>
      <rect id="Rectangle_332-36" data-name="Rectangle 332" width="7.228" height="0.782" transform="translate(52.852 33.869)" fill="#1e191c" opacity="0.1"/>
      <rect id="Rectangle_333-36" data-name="Rectangle 333" width="6.46" height="4.479" transform="translate(53.236 29.71)" fill="#1e191c"/>
      <rect id="Rectangle_335-36" data-name="Rectangle 335" width="6.46" height="1.777" transform="translate(53.236 29.71)" fill="#1e191c"/>
      <rect id="Rectangle_332-37" data-name="Rectangle 332" width="7.228" height="0.782" transform="translate(62.858 33.869)" fill="#1e191c" opacity="0.1"/>
      <rect id="Rectangle_333-37" data-name="Rectangle 333" width="6.46" height="4.479" transform="translate(63.242 29.71)" fill="#1e191c"/>
      <rect id="Rectangle_335-37" data-name="Rectangle 335" width="6.46" height="1.777" transform="translate(63.242 29.71)" fill="#1e191c"/>
      <rect id="Rectangle_332-38" data-name="Rectangle 332" width="7.228" height="0.782" transform="translate(34.069 49.694)" fill="#1e191c" opacity="0.1"/>
      <rect id="Rectangle_333-38" data-name="Rectangle 333" width="6.46" height="4.479" transform="translate(34.453 45.535)" fill="#1e191c"/>
      <rect id="Rectangle_335-38" data-name="Rectangle 335" width="6.46" height="1.777" transform="translate(34.453 45.535)" fill="#1e191c"/>
      <rect id="Rectangle_332-39" data-name="Rectangle 332" width="7.228" height="0.782" transform="translate(34.069 57.339)" fill="#1e191c" opacity="0.1"/>
      <rect id="Rectangle_333-39" data-name="Rectangle 333" width="6.46" height="4.479" transform="translate(34.453 53.18)" fill="#1e191c"/>
      <rect id="Rectangle_335-39" data-name="Rectangle 335" width="6.46" height="1.777" transform="translate(34.453 53.18)" fill="#1e191c"/>
      <rect id="Rectangle_332-40" data-name="Rectangle 332" width="7.228" height="0.782" transform="translate(34.069 64.982)" fill="#1e191c" opacity="0.1"/>
      <rect id="Rectangle_333-40" data-name="Rectangle 333" width="6.46" height="4.479" transform="translate(34.453 60.823)" fill="#1e191c"/>
      <rect id="Rectangle_335-40" data-name="Rectangle 335" width="6.46" height="1.777" transform="translate(34.453 60.823)" fill="#1e191c"/>
      <rect id="Rectangle_332-41" data-name="Rectangle 332" width="7.228" height="0.782" transform="translate(43.755 49.694)" fill="#1e191c" opacity="0.1"/>
      <rect id="Rectangle_333-41" data-name="Rectangle 333" width="6.46" height="4.479" transform="translate(44.14 45.535)" fill="#1e191c"/>
      <rect id="Rectangle_335-41" data-name="Rectangle 335" width="6.46" height="1.777" transform="translate(44.14 45.535)" fill="#1e191c"/>
      <rect id="Rectangle_332-42" data-name="Rectangle 332" width="7.228" height="0.782" transform="translate(43.755 57.339)" fill="#1e191c" opacity="0.1"/>
      <rect id="Rectangle_333-42" data-name="Rectangle 333" width="6.46" height="4.479" transform="translate(44.14 53.18)" fill="#1e191c"/>
      <rect id="Rectangle_335-42" data-name="Rectangle 335" width="6.46" height="1.777" transform="translate(44.14 53.18)" fill="#1e191c"/>
      <rect id="Rectangle_332-43" data-name="Rectangle 332" width="7.228" height="0.782" transform="translate(43.755 64.982)" fill="#1e191c" opacity="0.1"/>
      <rect id="Rectangle_333-43" data-name="Rectangle 333" width="6.46" height="4.479" transform="translate(44.14 60.823)" fill="#1e191c"/>
      <rect id="Rectangle_335-43" data-name="Rectangle 335" width="6.46" height="1.777" transform="translate(44.14 60.823)" fill="#1e191c"/>
      <rect id="Rectangle_332-44" data-name="Rectangle 332" width="7.228" height="0.782" transform="translate(52.852 49.694)" fill="#1e191c" opacity="0.1"/>
      <rect id="Rectangle_333-44" data-name="Rectangle 333" width="6.46" height="4.479" transform="translate(53.236 45.535)" fill="#1e191c"/>
      <rect id="Rectangle_335-44" data-name="Rectangle 335" width="6.46" height="1.777" transform="translate(53.236 45.535)" fill="#1e191c"/>
      <rect id="Rectangle_332-45" data-name="Rectangle 332" width="7.228" height="0.782" transform="translate(62.858 49.694)" fill="#1e191c" opacity="0.1"/>
      <rect id="Rectangle_333-45" data-name="Rectangle 333" width="6.46" height="4.479" transform="translate(63.242 45.535)" fill="#1e191c"/>
      <rect id="Rectangle_335-45" data-name="Rectangle 335" width="6.46" height="1.777" transform="translate(63.242 45.535)" fill="#1e191c"/>
      <rect id="Rectangle_332-46" data-name="Rectangle 332" width="7.228" height="0.782" transform="translate(52.852 57.339)" fill="#1e191c" opacity="0.1"/>
      <rect id="Rectangle_333-46" data-name="Rectangle 333" width="6.46" height="4.479" transform="translate(53.236 53.18)" fill="#1e191c"/>
      <rect id="Rectangle_335-46" data-name="Rectangle 335" width="6.46" height="1.777" transform="translate(53.236 53.18)" fill="#1e191c"/>
      <rect id="Rectangle_332-47" data-name="Rectangle 332" width="7.228" height="0.782" transform="translate(62.858 57.339)" fill="#1e191c" opacity="0.1"/>
      <rect id="Rectangle_333-47" data-name="Rectangle 333" width="6.46" height="4.479" transform="translate(63.242 53.18)" fill="#1e191c"/>
      <rect id="Rectangle_335-47" data-name="Rectangle 335" width="6.46" height="1.777" transform="translate(63.242 53.18)" fill="#1e191c"/>
      <rect id="Rectangle_332-48" data-name="Rectangle 332" width="7.228" height="0.782" transform="translate(52.852 64.982)" fill="#1e191c" opacity="0.1"/>
      <rect id="Rectangle_333-48" data-name="Rectangle 333" width="6.46" height="4.479" transform="translate(53.236 60.823)" fill="#1e191c"/>
      <rect id="Rectangle_335-48" data-name="Rectangle 335" width="6.46" height="1.777" transform="translate(53.236 60.823)" fill="#1e191c"/>
      <rect id="Rectangle_332-49" data-name="Rectangle 332" width="7.228" height="0.782" transform="translate(62.858 64.982)" fill="#1e191c" opacity="0.1"/>
      <rect id="Rectangle_333-49" data-name="Rectangle 333" width="6.46" height="4.479" transform="translate(63.242 60.823)" fill="#1e191c"/>
      <rect id="Rectangle_335-49" data-name="Rectangle 335" width="6.46" height="1.777" transform="translate(63.242 60.823)" fill="#1e191c"/>
      <rect id="Rectangle_332-50" data-name="Rectangle 332" width="7.228" height="0.782" transform="translate(5.01 41.997)" fill="#1e191c" opacity="0.1"/>
      <rect id="Rectangle_333-50" data-name="Rectangle 333" width="6.46" height="4.479" transform="translate(5.394 37.838)" fill="#1e191c"/>
      <rect id="Rectangle_335-50" data-name="Rectangle 335" width="6.46" height="1.777" transform="translate(5.394 37.838)" fill="#1e191c"/>
      <rect id="Rectangle_332-51" data-name="Rectangle 332" width="7.228" height="0.782" transform="translate(14.696 41.997)" fill="#1e191c" opacity="0.1"/>
      <rect id="Rectangle_333-51" data-name="Rectangle 333" width="6.46" height="4.479" transform="translate(15.08 37.838)" fill="#1e191c"/>
      <rect id="Rectangle_335-51" data-name="Rectangle 335" width="6.46" height="1.777" transform="translate(15.08 37.838)" fill="#1e191c"/>
      <rect id="Rectangle_332-52" data-name="Rectangle 332" width="7.228" height="0.782" transform="translate(24.383 41.997)" fill="#1e191c" opacity="0.1"/>
      <rect id="Rectangle_333-52" data-name="Rectangle 333" width="6.46" height="4.479" transform="translate(24.767 37.838)" fill="#1e191c"/>
      <rect id="Rectangle_335-52" data-name="Rectangle 335" width="6.46" height="1.777" transform="translate(24.767 37.838)" fill="#1e191c"/>
      <rect id="Rectangle_332-53" data-name="Rectangle 332" width="7.228" height="0.782" transform="translate(34.069 41.997)" fill="#1e191c" opacity="0.1"/>
      <rect id="Rectangle_333-53" data-name="Rectangle 333" width="6.46" height="4.479" transform="translate(34.453 37.838)" fill="#1e191c"/>
      <rect id="Rectangle_335-53" data-name="Rectangle 335" width="6.46" height="1.777" transform="translate(34.453 37.838)" fill="#1e191c"/>
      <rect id="Rectangle_332-54" data-name="Rectangle 332" width="7.228" height="0.782" transform="translate(43.755 41.997)" fill="#1e191c" opacity="0.1"/>
      <rect id="Rectangle_333-54" data-name="Rectangle 333" width="6.46" height="4.479" transform="translate(44.14 37.838)" fill="#1e191c"/>
      <rect id="Rectangle_335-54" data-name="Rectangle 335" width="6.46" height="1.777" transform="translate(44.14 37.838)" fill="#1e191c"/>
      <rect id="Rectangle_332-55" data-name="Rectangle 332" width="7.228" height="0.782" transform="translate(52.852 41.997)" fill="#1e191c" opacity="0.1"/>
      <rect id="Rectangle_333-55" data-name="Rectangle 333" width="6.46" height="4.479" transform="translate(53.236 37.838)" fill="#1e191c"/>
      <rect id="Rectangle_335-55" data-name="Rectangle 335" width="6.46" height="1.777" transform="translate(53.236 37.838)" fill="#1e191c"/>
      <rect id="Rectangle_332-56" data-name="Rectangle 332" width="7.228" height="0.782" transform="translate(62.858 41.997)" fill="#1e191c" opacity="0.1"/>
      <rect id="Rectangle_333-56" data-name="Rectangle 333" width="6.46" height="4.479" transform="translate(63.242 37.838)" fill="#1e191c"/>
      <rect id="Rectangle_335-56" data-name="Rectangle 335" width="6.46" height="1.777" transform="translate(63.242 37.838)" fill="#1e191c"/>
    </g>
    <g id="Rectangle_502" data-name="Rectangle 502" transform="translate(3 2)" fill="#1e191c" stroke="#1e191c" stroke-width="1">
      <rect width="78" height="2" stroke="none"/>
      <rect x="0.5" y="0.5" width="77" height="1" fill="none"/>
    </g>
    <g id="Group_737" data-name="Group 737" transform="translate(40.744 72.896)">
      <rect id="Rectangle_331" data-name="Rectangle 331" width="3.842" height="5.437" fill="#1e191c"/>
      <ellipse id="Ellipse_257" data-name="Ellipse 257" cx="0.215" cy="0.236" rx="0.215" ry="0.236" transform="translate(3.197 2.482)" fill="#e0e0e0"/>
    </g>
    <g id="Rectangle_510" data-name="Rectangle 510" transform="translate(0 78)" fill="#cbcdde" stroke="#707070" stroke-width="1">
      <rect width="83" height="2" stroke="none"/>
      <rect x="0.5" y="0.5" width="82" height="1" fill="none"/>
    </g>
  </g>
</svg>
