<svg xmlns="http://www.w3.org/2000/svg" xmlns:xlink="http://www.w3.org/1999/xlink" width="102" height="86" viewBox="0 0 102 86">
  <defs>
    <clipPath id="clip-building-9">
      <rect width="102" height="86"/>
    </clipPath>
  </defs>
  <g id="building-9" clip-path="url(#clip-building-9)">
    <g id="Group_869" data-name="Group 869" transform="translate(5.045 2.523)">
      <rect id="Rectangle_501" data-name="Rectangle 501" width="73.681" height="75.822" fill="#cbcdde"/>
      <rect id="Rectangle_332" data-name="Rectangle 332" width="7.228" height="0.782" transform="translate(5.01 64.982)" fill="#1e191c" opacity="0.1"/>
      <rect id="Rectangle_332-2" data-name="Rectangle 332" width="7.228" height="0.782" transform="translate(14.696 64.982)" fill="#1e191c" opacity="0.1"/>
      <rect id="Rectangle_332-3" data-name="Rectangle 332" width="7.228" height="0.782" transform="translate(24.383 64.982)" fill="#1e191c" opacity="0.1"/>
      <rect id="Rectangle_332-4" data-name="Rectangle 332" width="7.228" height="0.782" transform="translate(34.069 64.982)" fill="#1e191c" opacity="0.1"/>
      <rect id="Rectangle_332-5" data-name="Rectangle 332" width="7.228" height="0.782" transform="translate(43.755 64.982)" fill="#1e191c" opacity="0.1"/>
      <rect id="Rectangle_332-6" data-name="Rectangle 332" width="7.228" height="0.782" transform="translate(52.852 64.982)" fill="#1e191c" opacity="0.1"/>
      <rect id="Rectangle_332-7" data-name="Rectangle 332" width="7.228" height="0.782" transform="translate(62.858 64.982)" fill="#1e191c" opacity="0.1"/>
      <g id="Group_912" data-name="Group 912" transform="translate(2 1)">
        <rect id="Rectangle_332-8" data-name="Rectangle 332" width="6.826" height="0.765" transform="translate(5.01 9.395)" fill="#1e191c" opacity="0.1"/>
        <rect id="Rectangle_333" data-name="Rectangle 333" width="6.101" height="4.38" transform="translate(5.372 5.327)" fill="#1e191c"/>
        <rect id="Rectangle_335" data-name="Rectangle 335" width="6.101" height="1.738" transform="translate(5.372 5.327)" fill="#1e191c"/>
        <rect id="Rectangle_332-9" data-name="Rectangle 332" width="6.826" height="0.765" transform="translate(14.158 9.395)" fill="#1e191c" opacity="0.1"/>
        <rect id="Rectangle_333-2" data-name="Rectangle 333" width="6.101" height="4.38" transform="translate(14.521 5.327)" fill="#1e191c"/>
        <rect id="Rectangle_335-2" data-name="Rectangle 335" width="6.101" height="1.738" transform="translate(14.521 5.327)" fill="#1e191c"/>
        <rect id="Rectangle_332-10" data-name="Rectangle 332" width="6.826" height="0.765" transform="translate(23.307 9.395)" fill="#1e191c" opacity="0.1"/>
        <rect id="Rectangle_333-3" data-name="Rectangle 333" width="6.101" height="4.38" transform="translate(23.669 5.327)" fill="#1e191c"/>
        <rect id="Rectangle_335-3" data-name="Rectangle 335" width="6.101" height="1.738" transform="translate(23.669 5.327)" fill="#1e191c"/>
        <rect id="Rectangle_332-11" data-name="Rectangle 332" width="6.826" height="0.765" transform="translate(32.455 9.395)" fill="#1e191c" opacity="0.1"/>
        <rect id="Rectangle_333-4" data-name="Rectangle 333" width="6.101" height="4.38" transform="translate(32.818 5.327)" fill="#1e191c"/>
        <rect id="Rectangle_335-4" data-name="Rectangle 335" width="6.101" height="1.738" transform="translate(32.818 5.327)" fill="#1e191c"/>
        <rect id="Rectangle_332-12" data-name="Rectangle 332" width="6.826" height="0.765" transform="translate(41.604 9.395)" fill="#1e191c" opacity="0.1"/>
        <rect id="Rectangle_333-5" data-name="Rectangle 333" width="6.101" height="4.38" transform="translate(41.967 5.327)" fill="#1e191c"/>
        <rect id="Rectangle_335-5" data-name="Rectangle 335" width="6.101" height="1.738" transform="translate(41.967 5.327)" fill="#1e191c"/>
        <rect id="Rectangle_332-13" data-name="Rectangle 332" width="6.826" height="0.765" transform="translate(50.195 9.395)" fill="#1e191c" opacity="0.1"/>
        <rect id="Rectangle_333-6" data-name="Rectangle 333" width="6.101" height="4.38" transform="translate(50.558 5.327)" fill="#1e191c"/>
        <rect id="Rectangle_335-6" data-name="Rectangle 335" width="6.101" height="1.738" transform="translate(50.558 5.327)" fill="#1e191c"/>
        <rect id="Rectangle_332-14" data-name="Rectangle 332" width="6.826" height="0.765" transform="translate(59.646 9.395)" fill="#1e191c" opacity="0.1"/>
        <rect id="Rectangle_333-7" data-name="Rectangle 333" width="6.101" height="4.38" transform="translate(60.008 5.327)" fill="#1e191c"/>
        <rect id="Rectangle_335-7" data-name="Rectangle 335" width="6.101" height="1.738" transform="translate(60.008 5.327)" fill="#1e191c"/>
        <rect id="Rectangle_332-15" data-name="Rectangle 332" width="6.826" height="0.765" transform="translate(5.01 17.344)" fill="#1e191c" opacity="0.1"/>
        <rect id="Rectangle_333-8" data-name="Rectangle 333" width="6.101" height="4.38" transform="translate(5.372 13.276)" fill="#1e191c"/>
        <rect id="Rectangle_335-8" data-name="Rectangle 335" width="6.101" height="1.738" transform="translate(5.372 13.276)" fill="#1e191c"/>
        <rect id="Rectangle_332-16" data-name="Rectangle 332" width="6.826" height="0.765" transform="translate(14.158 17.344)" fill="#1e191c" opacity="0.1"/>
        <rect id="Rectangle_333-9" data-name="Rectangle 333" width="6.101" height="4.38" transform="translate(14.521 13.276)" fill="#1e191c"/>
        <rect id="Rectangle_335-9" data-name="Rectangle 335" width="6.101" height="1.738" transform="translate(14.521 13.276)" fill="#1e191c"/>
        <rect id="Rectangle_332-17" data-name="Rectangle 332" width="6.826" height="0.765" transform="translate(23.307 17.344)" fill="#1e191c" opacity="0.1"/>
        <rect id="Rectangle_333-10" data-name="Rectangle 333" width="6.101" height="4.38" transform="translate(23.669 13.276)" fill="#1e191c"/>
        <rect id="Rectangle_335-10" data-name="Rectangle 335" width="6.101" height="1.738" transform="translate(23.669 13.276)" fill="#1e191c"/>
        <rect id="Rectangle_332-18" data-name="Rectangle 332" width="6.826" height="0.765" transform="translate(32.455 17.344)" fill="#1e191c" opacity="0.1"/>
        <rect id="Rectangle_333-11" data-name="Rectangle 333" width="6.101" height="4.38" transform="translate(32.818 13.276)" fill="#1e191c"/>
        <rect id="Rectangle_335-11" data-name="Rectangle 335" width="6.101" height="1.738" transform="translate(32.818 13.276)" fill="#1e191c"/>
        <rect id="Rectangle_332-19" data-name="Rectangle 332" width="6.826" height="0.765" transform="translate(41.604 17.344)" fill="#1e191c" opacity="0.1"/>
        <rect id="Rectangle_333-12" data-name="Rectangle 333" width="6.101" height="4.38" transform="translate(41.967 13.276)" fill="#1e191c"/>
        <rect id="Rectangle_335-12" data-name="Rectangle 335" width="6.101" height="1.738" transform="translate(41.967 13.276)" fill="#1e191c"/>
        <rect id="Rectangle_332-20" data-name="Rectangle 332" width="6.826" height="0.765" transform="translate(50.195 17.344)" fill="#1e191c" opacity="0.1"/>
        <rect id="Rectangle_333-13" data-name="Rectangle 333" width="6.101" height="4.38" transform="translate(50.558 13.276)" fill="#1e191c"/>
        <rect id="Rectangle_335-13" data-name="Rectangle 335" width="6.101" height="1.738" transform="translate(50.558 13.276)" fill="#1e191c"/>
        <rect id="Rectangle_332-21" data-name="Rectangle 332" width="6.826" height="0.765" transform="translate(59.646 17.344)" fill="#1e191c" opacity="0.1"/>
        <rect id="Rectangle_333-14" data-name="Rectangle 333" width="6.101" height="4.38" transform="translate(60.008 13.276)" fill="#1e191c"/>
        <rect id="Rectangle_335-14" data-name="Rectangle 335" width="6.101" height="1.738" transform="translate(60.008 13.276)" fill="#1e191c"/>
        <rect id="Rectangle_332-22" data-name="Rectangle 332" width="6.826" height="0.765" transform="translate(5.01 25.292)" fill="#1e191c" opacity="0.1"/>
        <rect id="Rectangle_333-15" data-name="Rectangle 333" width="6.101" height="4.38" transform="translate(5.372 21.224)" fill="#1e191c"/>
        <rect id="Rectangle_335-15" data-name="Rectangle 335" width="6.101" height="1.738" transform="translate(5.372 21.224)" fill="#1e191c"/>
        <rect id="Rectangle_332-23" data-name="Rectangle 332" width="6.826" height="0.765" transform="translate(14.158 25.292)" fill="#1e191c" opacity="0.1"/>
        <rect id="Rectangle_333-16" data-name="Rectangle 333" width="6.101" height="4.38" transform="translate(14.521 21.224)" fill="#1e191c"/>
        <rect id="Rectangle_335-16" data-name="Rectangle 335" width="6.101" height="1.738" transform="translate(14.521 21.224)" fill="#1e191c"/>
        <rect id="Rectangle_332-24" data-name="Rectangle 332" width="6.826" height="0.765" transform="translate(23.307 25.292)" fill="#1e191c" opacity="0.1"/>
        <rect id="Rectangle_333-17" data-name="Rectangle 333" width="6.101" height="4.38" transform="translate(23.669 21.224)" fill="#1e191c"/>
        <rect id="Rectangle_335-17" data-name="Rectangle 335" width="6.101" height="1.738" transform="translate(23.669 21.224)" fill="#1e191c"/>
        <rect id="Rectangle_332-25" data-name="Rectangle 332" width="6.826" height="0.765" transform="translate(32.455 25.292)" fill="#1e191c" opacity="0.1"/>
        <rect id="Rectangle_333-18" data-name="Rectangle 333" width="6.101" height="4.38" transform="translate(32.818 21.224)" fill="#1e191c"/>
        <rect id="Rectangle_335-18" data-name="Rectangle 335" width="6.101" height="1.738" transform="translate(32.818 21.224)" fill="#1e191c"/>
        <rect id="Rectangle_332-26" data-name="Rectangle 332" width="6.826" height="0.765" transform="translate(41.604 25.292)" fill="#1e191c" opacity="0.1"/>
        <rect id="Rectangle_333-19" data-name="Rectangle 333" width="6.101" height="4.38" transform="translate(41.967 21.224)" fill="#1e191c"/>
        <rect id="Rectangle_335-19" data-name="Rectangle 335" width="6.101" height="1.738" transform="translate(41.967 21.224)" fill="#1e191c"/>
        <rect id="Rectangle_332-27" data-name="Rectangle 332" width="6.826" height="0.765" transform="translate(50.195 25.292)" fill="#1e191c" opacity="0.1"/>
        <rect id="Rectangle_333-20" data-name="Rectangle 333" width="6.101" height="4.38" transform="translate(50.558 21.224)" fill="#1e191c"/>
        <rect id="Rectangle_335-20" data-name="Rectangle 335" width="6.101" height="1.738" transform="translate(50.558 21.224)" fill="#1e191c"/>
        <rect id="Rectangle_332-28" data-name="Rectangle 332" width="6.826" height="0.765" transform="translate(59.646 25.292)" fill="#1e191c" opacity="0.1"/>
        <rect id="Rectangle_333-21" data-name="Rectangle 333" width="6.101" height="4.38" transform="translate(60.008 21.224)" fill="#1e191c"/>
        <rect id="Rectangle_335-21" data-name="Rectangle 335" width="6.101" height="1.738" transform="translate(60.008 21.224)" fill="#1e191c"/>
        <rect id="Rectangle_332-29" data-name="Rectangle 332" width="6.826" height="0.765" transform="translate(5.01 33.241)" fill="#1e191c" opacity="0.1"/>
        <rect id="Rectangle_333-22" data-name="Rectangle 333" width="6.101" height="4.38" transform="translate(5.372 29.173)" fill="#1e191c"/>
        <rect id="Rectangle_335-22" data-name="Rectangle 335" width="6.101" height="1.738" transform="translate(5.372 29.173)" fill="#1e191c"/>
        <rect id="Rectangle_332-30" data-name="Rectangle 332" width="6.826" height="0.765" transform="translate(5.01 48.718)" fill="#1e191c" opacity="0.1"/>
        <rect id="Rectangle_333-23" data-name="Rectangle 333" width="6.101" height="4.38" transform="translate(5.372 44.65)" fill="#1e191c"/>
        <rect id="Rectangle_335-23" data-name="Rectangle 335" width="6.101" height="1.738" transform="translate(5.372 44.65)" fill="#1e191c"/>
        <rect id="Rectangle_332-31" data-name="Rectangle 332" width="6.826" height="0.765" transform="translate(5.01 56.194)" fill="#1e191c" opacity="0.1"/>
        <rect id="Rectangle_333-24" data-name="Rectangle 333" width="6.101" height="4.38" transform="translate(5.372 52.127)" fill="#1e191c"/>
        <rect id="Rectangle_335-24" data-name="Rectangle 335" width="6.101" height="1.738" transform="translate(5.372 52.127)" fill="#1e191c"/>
        <rect id="Rectangle_333-25" data-name="Rectangle 333" width="6.101" height="4.38" transform="translate(5.372 59.602)" fill="#1e191c"/>
        <rect id="Rectangle_335-25" data-name="Rectangle 335" width="6.101" height="1.738" transform="translate(5.372 59.602)" fill="#1e191c"/>
        <rect id="Rectangle_332-32" data-name="Rectangle 332" width="6.826" height="0.765" transform="translate(14.158 33.241)" fill="#1e191c" opacity="0.1"/>
        <rect id="Rectangle_333-26" data-name="Rectangle 333" width="6.101" height="4.38" transform="translate(14.521 29.173)" fill="#1e191c"/>
        <rect id="Rectangle_335-26" data-name="Rectangle 335" width="6.101" height="1.738" transform="translate(14.521 29.173)" fill="#1e191c"/>
        <rect id="Rectangle_332-33" data-name="Rectangle 332" width="6.826" height="0.765" transform="translate(14.158 48.718)" fill="#1e191c" opacity="0.1"/>
        <rect id="Rectangle_333-27" data-name="Rectangle 333" width="6.101" height="4.38" transform="translate(14.521 44.65)" fill="#1e191c"/>
        <rect id="Rectangle_335-27" data-name="Rectangle 335" width="6.101" height="1.738" transform="translate(14.521 44.65)" fill="#1e191c"/>
        <rect id="Rectangle_332-34" data-name="Rectangle 332" width="6.826" height="0.765" transform="translate(14.158 56.194)" fill="#1e191c" opacity="0.1"/>
        <rect id="Rectangle_333-28" data-name="Rectangle 333" width="6.101" height="4.38" transform="translate(14.521 52.127)" fill="#1e191c"/>
        <rect id="Rectangle_335-28" data-name="Rectangle 335" width="6.101" height="1.738" transform="translate(14.521 52.127)" fill="#1e191c"/>
        <rect id="Rectangle_333-29" data-name="Rectangle 333" width="6.101" height="4.38" transform="translate(14.521 59.602)" fill="#1e191c"/>
        <rect id="Rectangle_335-29" data-name="Rectangle 335" width="6.101" height="1.738" transform="translate(14.521 59.602)" fill="#1e191c"/>
        <rect id="Rectangle_332-35" data-name="Rectangle 332" width="6.826" height="0.765" transform="translate(23.307 33.241)" fill="#1e191c" opacity="0.1"/>
        <rect id="Rectangle_333-30" data-name="Rectangle 333" width="6.101" height="4.38" transform="translate(23.669 29.173)" fill="#1e191c"/>
        <rect id="Rectangle_335-30" data-name="Rectangle 335" width="6.101" height="1.738" transform="translate(23.669 29.173)" fill="#1e191c"/>
        <rect id="Rectangle_332-36" data-name="Rectangle 332" width="6.826" height="0.765" transform="translate(23.307 48.718)" fill="#1e191c" opacity="0.1"/>
        <rect id="Rectangle_333-31" data-name="Rectangle 333" width="6.101" height="4.38" transform="translate(23.669 44.65)" fill="#1e191c"/>
        <rect id="Rectangle_335-31" data-name="Rectangle 335" width="6.101" height="1.738" transform="translate(23.669 44.65)" fill="#1e191c"/>
        <rect id="Rectangle_332-37" data-name="Rectangle 332" width="6.826" height="0.765" transform="translate(23.307 56.194)" fill="#1e191c" opacity="0.1"/>
        <rect id="Rectangle_333-32" data-name="Rectangle 333" width="6.101" height="4.38" transform="translate(23.669 52.127)" fill="#1e191c"/>
        <rect id="Rectangle_335-32" data-name="Rectangle 335" width="6.101" height="1.738" transform="translate(23.669 52.127)" fill="#1e191c"/>
        <rect id="Rectangle_333-33" data-name="Rectangle 333" width="6.101" height="4.38" transform="translate(23.669 59.602)" fill="#1e191c"/>
        <rect id="Rectangle_335-33" data-name="Rectangle 335" width="6.101" height="1.738" transform="translate(23.669 59.602)" fill="#1e191c"/>
        <rect id="Rectangle_332-38" data-name="Rectangle 332" width="6.826" height="0.765" transform="translate(32.455 33.241)" fill="#1e191c" opacity="0.1"/>
        <rect id="Rectangle_333-34" data-name="Rectangle 333" width="6.101" height="4.38" transform="translate(32.818 29.173)" fill="#1e191c"/>
        <rect id="Rectangle_335-34" data-name="Rectangle 335" width="6.101" height="1.738" transform="translate(32.818 29.173)" fill="#1e191c"/>
        <rect id="Rectangle_332-39" data-name="Rectangle 332" width="6.826" height="0.765" transform="translate(41.604 33.241)" fill="#1e191c" opacity="0.1"/>
        <rect id="Rectangle_333-35" data-name="Rectangle 333" width="6.101" height="4.38" transform="translate(41.967 29.173)" fill="#1e191c"/>
        <rect id="Rectangle_335-35" data-name="Rectangle 335" width="6.101" height="1.738" transform="translate(41.967 29.173)" fill="#1e191c"/>
        <rect id="Rectangle_332-40" data-name="Rectangle 332" width="6.826" height="0.765" transform="translate(50.195 33.241)" fill="#1e191c" opacity="0.1"/>
        <rect id="Rectangle_333-36" data-name="Rectangle 333" width="6.101" height="4.38" transform="translate(50.558 29.173)" fill="#1e191c"/>
        <rect id="Rectangle_335-36" data-name="Rectangle 335" width="6.101" height="1.738" transform="translate(50.558 29.173)" fill="#1e191c"/>
        <rect id="Rectangle_332-41" data-name="Rectangle 332" width="6.826" height="0.765" transform="translate(59.646 33.241)" fill="#1e191c" opacity="0.1"/>
        <rect id="Rectangle_333-37" data-name="Rectangle 333" width="6.101" height="4.38" transform="translate(60.008 29.173)" fill="#1e191c"/>
        <rect id="Rectangle_335-37" data-name="Rectangle 335" width="6.101" height="1.738" transform="translate(60.008 29.173)" fill="#1e191c"/>
        <rect id="Rectangle_332-42" data-name="Rectangle 332" width="6.826" height="0.765" transform="translate(32.455 48.718)" fill="#1e191c" opacity="0.1"/>
        <rect id="Rectangle_333-38" data-name="Rectangle 333" width="6.101" height="4.38" transform="translate(32.818 44.65)" fill="#1e191c"/>
        <rect id="Rectangle_335-38" data-name="Rectangle 335" width="6.101" height="1.738" transform="translate(32.818 44.65)" fill="#1e191c"/>
        <rect id="Rectangle_332-43" data-name="Rectangle 332" width="6.826" height="0.765" transform="translate(32.455 56.194)" fill="#1e191c" opacity="0.1"/>
        <rect id="Rectangle_333-39" data-name="Rectangle 333" width="6.101" height="4.38" transform="translate(32.818 52.127)" fill="#1e191c"/>
        <rect id="Rectangle_335-39" data-name="Rectangle 335" width="6.101" height="1.738" transform="translate(32.818 52.127)" fill="#1e191c"/>
        <rect id="Rectangle_333-40" data-name="Rectangle 333" width="6.101" height="4.38" transform="translate(32.818 59.602)" fill="#1e191c"/>
        <rect id="Rectangle_335-40" data-name="Rectangle 335" width="6.101" height="1.738" transform="translate(32.818 59.602)" fill="#1e191c"/>
        <rect id="Rectangle_332-44" data-name="Rectangle 332" width="6.826" height="0.765" transform="translate(41.604 48.718)" fill="#1e191c" opacity="0.1"/>
        <rect id="Rectangle_333-41" data-name="Rectangle 333" width="6.101" height="4.38" transform="translate(41.967 44.65)" fill="#1e191c"/>
        <rect id="Rectangle_335-41" data-name="Rectangle 335" width="6.101" height="1.738" transform="translate(41.967 44.65)" fill="#1e191c"/>
        <rect id="Rectangle_332-45" data-name="Rectangle 332" width="6.826" height="0.765" transform="translate(41.604 56.194)" fill="#1e191c" opacity="0.1"/>
        <rect id="Rectangle_333-42" data-name="Rectangle 333" width="6.101" height="4.38" transform="translate(41.967 52.127)" fill="#1e191c"/>
        <rect id="Rectangle_335-42" data-name="Rectangle 335" width="6.101" height="1.738" transform="translate(41.967 52.127)" fill="#1e191c"/>
        <rect id="Rectangle_333-43" data-name="Rectangle 333" width="6.101" height="4.38" transform="translate(41.967 59.602)" fill="#1e191c"/>
        <rect id="Rectangle_335-43" data-name="Rectangle 335" width="6.101" height="1.738" transform="translate(41.967 59.602)" fill="#1e191c"/>
        <rect id="Rectangle_332-46" data-name="Rectangle 332" width="6.826" height="0.765" transform="translate(50.195 48.718)" fill="#1e191c" opacity="0.1"/>
        <rect id="Rectangle_333-44" data-name="Rectangle 333" width="6.101" height="4.38" transform="translate(50.558 44.65)" fill="#1e191c"/>
        <rect id="Rectangle_335-44" data-name="Rectangle 335" width="6.101" height="1.738" transform="translate(50.558 44.65)" fill="#1e191c"/>
        <rect id="Rectangle_332-47" data-name="Rectangle 332" width="6.826" height="0.765" transform="translate(59.646 48.718)" fill="#1e191c" opacity="0.1"/>
        <rect id="Rectangle_333-45" data-name="Rectangle 333" width="6.101" height="4.38" transform="translate(60.008 44.65)" fill="#1e191c"/>
        <rect id="Rectangle_335-45" data-name="Rectangle 335" width="6.101" height="1.738" transform="translate(60.008 44.65)" fill="#1e191c"/>
        <rect id="Rectangle_332-48" data-name="Rectangle 332" width="6.826" height="0.765" transform="translate(50.195 56.194)" fill="#1e191c" opacity="0.1"/>
        <rect id="Rectangle_333-46" data-name="Rectangle 333" width="6.101" height="4.38" transform="translate(50.558 52.127)" fill="#1e191c"/>
        <rect id="Rectangle_335-46" data-name="Rectangle 335" width="6.101" height="1.738" transform="translate(50.558 52.127)" fill="#1e191c"/>
        <rect id="Rectangle_332-49" data-name="Rectangle 332" width="6.826" height="0.765" transform="translate(59.646 56.194)" fill="#1e191c" opacity="0.1"/>
        <rect id="Rectangle_333-47" data-name="Rectangle 333" width="6.101" height="4.38" transform="translate(60.008 52.127)" fill="#1e191c"/>
        <rect id="Rectangle_335-47" data-name="Rectangle 335" width="6.101" height="1.738" transform="translate(60.008 52.127)" fill="#1e191c"/>
        <rect id="Rectangle_333-48" data-name="Rectangle 333" width="6.101" height="4.38" transform="translate(50.558 59.602)" fill="#1e191c"/>
        <rect id="Rectangle_335-48" data-name="Rectangle 335" width="6.101" height="1.738" transform="translate(50.558 59.602)" fill="#1e191c"/>
        <rect id="Rectangle_333-49" data-name="Rectangle 333" width="6.101" height="4.38" transform="translate(60.008 59.602)" fill="#1e191c"/>
        <rect id="Rectangle_335-49" data-name="Rectangle 335" width="6.101" height="1.738" transform="translate(60.008 59.602)" fill="#1e191c"/>
        <rect id="Rectangle_332-50" data-name="Rectangle 332" width="6.826" height="0.765" transform="translate(5.01 41.19)" fill="#1e191c" opacity="0.1"/>
        <rect id="Rectangle_333-50" data-name="Rectangle 333" width="6.101" height="4.38" transform="translate(5.372 37.122)" fill="#1e191c"/>
        <rect id="Rectangle_335-50" data-name="Rectangle 335" width="6.101" height="1.738" transform="translate(5.372 37.122)" fill="#1e191c"/>
        <rect id="Rectangle_332-51" data-name="Rectangle 332" width="6.826" height="0.765" transform="translate(14.158 41.19)" fill="#1e191c" opacity="0.1"/>
        <rect id="Rectangle_333-51" data-name="Rectangle 333" width="6.101" height="4.38" transform="translate(14.521 37.122)" fill="#1e191c"/>
        <rect id="Rectangle_335-51" data-name="Rectangle 335" width="6.101" height="1.738" transform="translate(14.521 37.122)" fill="#1e191c"/>
        <rect id="Rectangle_332-52" data-name="Rectangle 332" width="6.826" height="0.765" transform="translate(23.307 41.19)" fill="#1e191c" opacity="0.1"/>
        <rect id="Rectangle_333-52" data-name="Rectangle 333" width="6.101" height="4.38" transform="translate(23.669 37.122)" fill="#1e191c"/>
        <rect id="Rectangle_335-52" data-name="Rectangle 335" width="6.101" height="1.738" transform="translate(23.669 37.122)" fill="#1e191c"/>
        <rect id="Rectangle_332-53" data-name="Rectangle 332" width="6.826" height="0.765" transform="translate(32.455 41.19)" fill="#1e191c" opacity="0.1"/>
        <rect id="Rectangle_333-53" data-name="Rectangle 333" width="6.101" height="4.38" transform="translate(32.818 37.122)" fill="#1e191c"/>
        <rect id="Rectangle_335-53" data-name="Rectangle 335" width="6.101" height="1.738" transform="translate(32.818 37.122)" fill="#1e191c"/>
        <rect id="Rectangle_332-54" data-name="Rectangle 332" width="6.826" height="0.765" transform="translate(41.604 41.19)" fill="#1e191c" opacity="0.1"/>
        <rect id="Rectangle_333-54" data-name="Rectangle 333" width="6.101" height="4.38" transform="translate(41.967 37.122)" fill="#1e191c"/>
        <rect id="Rectangle_335-54" data-name="Rectangle 335" width="6.101" height="1.738" transform="translate(41.967 37.122)" fill="#1e191c"/>
        <rect id="Rectangle_332-55" data-name="Rectangle 332" width="6.826" height="0.765" transform="translate(50.195 41.19)" fill="#1e191c" opacity="0.1"/>
        <rect id="Rectangle_333-55" data-name="Rectangle 333" width="6.101" height="4.38" transform="translate(50.558 37.122)" fill="#1e191c"/>
        <rect id="Rectangle_335-55" data-name="Rectangle 335" width="6.101" height="1.738" transform="translate(50.558 37.122)" fill="#1e191c"/>
        <rect id="Rectangle_332-56" data-name="Rectangle 332" width="6.826" height="0.765" transform="translate(59.646 41.19)" fill="#1e191c" opacity="0.1"/>
        <rect id="Rectangle_333-56" data-name="Rectangle 333" width="6.101" height="4.38" transform="translate(60.008 37.122)" fill="#1e191c"/>
        <rect id="Rectangle_335-56" data-name="Rectangle 335" width="6.101" height="1.738" transform="translate(60.008 37.122)" fill="#1e191c"/>
      </g>
    </g>
    <g id="Rectangle_502" data-name="Rectangle 502" transform="translate(3 2)" fill="#1e191c" stroke="#1e191c" stroke-width="1">
      <rect width="78" height="2" stroke="none"/>
      <rect x="0.5" y="0.5" width="77" height="1" fill="none"/>
    </g>
    <g id="Group_737" data-name="Group 737" transform="translate(40.744 72.896)">
      <rect id="Rectangle_331" data-name="Rectangle 331" width="3.842" height="5.437" fill="#1e191c"/>
      <ellipse id="Ellipse_257" data-name="Ellipse 257" cx="0.215" cy="0.236" rx="0.215" ry="0.236" transform="translate(3.197 2.482)" fill="#e0e0e0"/>
    </g>
    <g id="Rectangle_510" data-name="Rectangle 510" transform="translate(0 78)" fill="#cbcdde" stroke="#707070" stroke-width="1">
      <rect width="83" height="2" stroke="none"/>
      <rect x="0.5" y="0.5" width="82" height="1" fill="none"/>
    </g>
  </g>
</svg>
