<svg xmlns="http://www.w3.org/2000/svg" xmlns:xlink="http://www.w3.org/1999/xlink" width="870" height="149" viewBox="0 0 870 149">
  <defs>
    <clipPath id="clip-numppl">
      <rect width="870" height="149"/>
    </clipPath>
  </defs>
  <g id="numppl" clip-path="url(#clip-numppl)">
    <g id="Ellipse_296" data-name="Ellipse 296" transform="translate(4 3)" fill="#2cf3e6" stroke="#6b6a6a" stroke-width="1">
      <circle cx="7.5" cy="7.5" r="7.5" stroke="none"/>
      <circle cx="7.5" cy="7.5" r="7" fill="none"/>
    </g>
    <g id="Ellipse_308" data-name="Ellipse 308" transform="translate(4 33)" fill="#635f5f" stroke="#707070" stroke-width="1">
      <circle cx="7.5" cy="7.5" r="7.5" stroke="none"/>
      <circle cx="7.5" cy="7.5" r="7" fill="none"/>
    </g>
    <g id="Ellipse_320" data-name="Ellipse 320" transform="translate(4 63)" fill="#635f5f" stroke="#707070" stroke-width="1">
      <circle cx="7.5" cy="7.5" r="7.5" stroke="none"/>
      <circle cx="7.5" cy="7.5" r="7" fill="none"/>
    </g>
    <g id="Ellipse_332" data-name="Ellipse 332" transform="translate(4 93)" fill="#635f5f" stroke="#707070" stroke-width="1">
      <circle cx="7.5" cy="7.5" r="7.5" stroke="none"/>
      <circle cx="7.5" cy="7.5" r="7" fill="none"/>
    </g>
    <g id="Ellipse_344" data-name="Ellipse 344" transform="translate(4 123)" fill="#635f5f" stroke="#707070" stroke-width="1">
      <circle cx="7.5" cy="7.5" r="7.5" stroke="none"/>
      <circle cx="7.5" cy="7.5" r="7" fill="none"/>
    </g>
    <g id="Ellipse_356" data-name="Ellipse 356" transform="translate(436 3)" fill="#635f5f" stroke="#707070" stroke-width="1">
      <circle cx="7.5" cy="7.5" r="7.5" stroke="none"/>
      <circle cx="7.5" cy="7.5" r="7" fill="none"/>
    </g>
    <g id="Ellipse_368" data-name="Ellipse 368" transform="translate(436 33)" fill="#635f5f" stroke="#707070" stroke-width="1">
      <circle cx="7.5" cy="7.5" r="7.5" stroke="none"/>
      <circle cx="7.5" cy="7.5" r="7" fill="none"/>
    </g>
    <g id="Ellipse_391" data-name="Ellipse 391" transform="translate(436 63)" fill="#635f5f" stroke="#707070" stroke-width="1">
      <circle cx="7.5" cy="7.5" r="7.5" stroke="none"/>
      <circle cx="7.5" cy="7.5" r="7" fill="none"/>
    </g>
    <g id="Ellipse_403" data-name="Ellipse 403" transform="translate(436 93)" fill="#635f5f" stroke="#707070" stroke-width="1">
      <circle cx="7.5" cy="7.5" r="7.5" stroke="none"/>
      <circle cx="7.5" cy="7.5" r="7" fill="none"/>
    </g>
    <g id="Ellipse_415" data-name="Ellipse 415" transform="translate(436 123)" fill="#635f5f" stroke="#707070" stroke-width="1">
      <circle cx="7.5" cy="7.5" r="7.5" stroke="none"/>
      <circle cx="7.5" cy="7.5" r="7" fill="none"/>
    </g>
    <g id="Ellipse_305" data-name="Ellipse 305" transform="translate(220 3)" fill="#635f5f" stroke="#707070" stroke-width="1">
      <circle cx="7.5" cy="7.5" r="7.5" stroke="none"/>
      <circle cx="7.5" cy="7.5" r="7" fill="none"/>
    </g>
    <g id="Ellipse_309" data-name="Ellipse 309" transform="translate(220 33)" fill="#635f5f" stroke="#707070" stroke-width="1">
      <circle cx="7.5" cy="7.5" r="7.5" stroke="none"/>
      <circle cx="7.5" cy="7.5" r="7" fill="none"/>
    </g>
    <g id="Ellipse_321" data-name="Ellipse 321" transform="translate(220 63)" fill="#635f5f" stroke="#707070" stroke-width="1">
      <circle cx="7.5" cy="7.5" r="7.5" stroke="none"/>
      <circle cx="7.5" cy="7.5" r="7" fill="none"/>
    </g>
    <g id="Ellipse_333" data-name="Ellipse 333" transform="translate(220 93)" fill="#635f5f" stroke="#707070" stroke-width="1">
      <circle cx="7.5" cy="7.5" r="7.5" stroke="none"/>
      <circle cx="7.5" cy="7.5" r="7" fill="none"/>
    </g>
    <g id="Ellipse_345" data-name="Ellipse 345" transform="translate(220 123)" fill="#635f5f" stroke="#707070" stroke-width="1">
      <circle cx="7.5" cy="7.5" r="7.5" stroke="none"/>
      <circle cx="7.5" cy="7.5" r="7" fill="none"/>
    </g>
    <g id="Ellipse_357" data-name="Ellipse 357" transform="translate(652 3)" fill="#635f5f" stroke="#707070" stroke-width="1">
      <circle cx="7.5" cy="7.5" r="7.5" stroke="none"/>
      <circle cx="7.5" cy="7.5" r="7" fill="none"/>
    </g>
    <g id="Ellipse_369" data-name="Ellipse 369" transform="translate(652 33)" fill="#635f5f" stroke="#707070" stroke-width="1">
      <circle cx="7.5" cy="7.5" r="7.5" stroke="none"/>
      <circle cx="7.5" cy="7.5" r="7" fill="none"/>
    </g>
    <g id="Ellipse_384" data-name="Ellipse 384" transform="translate(652 63)" fill="#635f5f" stroke="#707070" stroke-width="1">
      <circle cx="7.5" cy="7.5" r="7.5" stroke="none"/>
      <circle cx="7.5" cy="7.5" r="7" fill="none"/>
    </g>
    <g id="Ellipse_396" data-name="Ellipse 396" transform="translate(652 93)" fill="#635f5f" stroke="#707070" stroke-width="1">
      <circle cx="7.5" cy="7.5" r="7.5" stroke="none"/>
      <circle cx="7.5" cy="7.5" r="7" fill="none"/>
    </g>
    <g id="Ellipse_408" data-name="Ellipse 408" transform="translate(652 123)" fill="#635f5f" stroke="#707070" stroke-width="1">
      <circle cx="7.5" cy="7.5" r="7.5" stroke="none"/>
      <circle cx="7.5" cy="7.5" r="7" fill="none"/>
    </g>
    <g id="Ellipse_300" data-name="Ellipse 300" transform="translate(112 3)" fill="#635f5f" stroke="#707070" stroke-width="1">
      <circle cx="7.5" cy="7.5" r="7.5" stroke="none"/>
      <circle cx="7.5" cy="7.5" r="7" fill="none"/>
    </g>
    <g id="Ellipse_310" data-name="Ellipse 310" transform="translate(112 33)" fill="#635f5f" stroke="#707070" stroke-width="1">
      <circle cx="7.5" cy="7.5" r="7.5" stroke="none"/>
      <circle cx="7.5" cy="7.5" r="7" fill="none"/>
    </g>
    <g id="Ellipse_322" data-name="Ellipse 322" transform="translate(112 63)" fill="#635f5f" stroke="#707070" stroke-width="1">
      <circle cx="7.5" cy="7.5" r="7.5" stroke="none"/>
      <circle cx="7.5" cy="7.5" r="7" fill="none"/>
    </g>
    <g id="Ellipse_334" data-name="Ellipse 334" transform="translate(112 93)" fill="#635f5f" stroke="#707070" stroke-width="1">
      <circle cx="7.5" cy="7.5" r="7.5" stroke="none"/>
      <circle cx="7.5" cy="7.5" r="7" fill="none"/>
    </g>
    <g id="Ellipse_346" data-name="Ellipse 346" transform="translate(112 123)" fill="#635f5f" stroke="#707070" stroke-width="1">
      <circle cx="7.5" cy="7.5" r="7.5" stroke="none"/>
      <circle cx="7.5" cy="7.5" r="7" fill="none"/>
    </g>
    <g id="Ellipse_358" data-name="Ellipse 358" transform="translate(544 3)" fill="#635f5f" stroke="#707070" stroke-width="1">
      <circle cx="7.5" cy="7.5" r="7.5" stroke="none"/>
      <circle cx="7.5" cy="7.5" r="7" fill="none"/>
    </g>
    <g id="Ellipse_370" data-name="Ellipse 370" transform="translate(544 33)" fill="#635f5f" stroke="#707070" stroke-width="1">
      <circle cx="7.5" cy="7.5" r="7.5" stroke="none"/>
      <circle cx="7.5" cy="7.5" r="7" fill="none"/>
    </g>
    <g id="Ellipse_387" data-name="Ellipse 387" transform="translate(544 63)" fill="#635f5f" stroke="#707070" stroke-width="1">
      <circle cx="7.5" cy="7.5" r="7.5" stroke="none"/>
      <circle cx="7.5" cy="7.5" r="7" fill="none"/>
    </g>
    <g id="Ellipse_399" data-name="Ellipse 399" transform="translate(544 93)" fill="#635f5f" stroke="#707070" stroke-width="1">
      <circle cx="7.5" cy="7.5" r="7.5" stroke="none"/>
      <circle cx="7.5" cy="7.5" r="7" fill="none"/>
    </g>
    <g id="Ellipse_411" data-name="Ellipse 411" transform="translate(544 123)" fill="#635f5f" stroke="#707070" stroke-width="1">
      <circle cx="7.5" cy="7.5" r="7.5" stroke="none"/>
      <circle cx="7.5" cy="7.5" r="7" fill="none"/>
    </g>
    <g id="Ellipse_302" data-name="Ellipse 302" transform="translate(328 3)" fill="#635f5f" stroke="#707070" stroke-width="1">
      <circle cx="7.5" cy="7.5" r="7.5" stroke="none"/>
      <circle cx="7.5" cy="7.5" r="7" fill="none"/>
    </g>
    <g id="Ellipse_311" data-name="Ellipse 311" transform="translate(328 33)" fill="#635f5f" stroke="#707070" stroke-width="1">
      <circle cx="7.5" cy="7.5" r="7.5" stroke="none"/>
      <circle cx="7.5" cy="7.5" r="7" fill="none"/>
    </g>
    <g id="Ellipse_323" data-name="Ellipse 323" transform="translate(328 63)" fill="#635f5f" stroke="#707070" stroke-width="1">
      <circle cx="7.5" cy="7.5" r="7.5" stroke="none"/>
      <circle cx="7.5" cy="7.5" r="7" fill="none"/>
    </g>
    <g id="Ellipse_335" data-name="Ellipse 335" transform="translate(328 93)" fill="#635f5f" stroke="#707070" stroke-width="1">
      <circle cx="7.5" cy="7.5" r="7.5" stroke="none"/>
      <circle cx="7.5" cy="7.5" r="7" fill="none"/>
    </g>
    <g id="Ellipse_347" data-name="Ellipse 347" transform="translate(328 123)" fill="#635f5f" stroke="#707070" stroke-width="1">
      <circle cx="7.5" cy="7.5" r="7.5" stroke="none"/>
      <circle cx="7.5" cy="7.5" r="7" fill="none"/>
    </g>
    <g id="Ellipse_359" data-name="Ellipse 359" transform="translate(760 3)" fill="#635f5f" stroke="#707070" stroke-width="1">
      <circle cx="7.5" cy="7.5" r="7.5" stroke="none"/>
      <circle cx="7.5" cy="7.5" r="7" fill="none"/>
    </g>
    <g id="Ellipse_371" data-name="Ellipse 371" transform="translate(760 33)" fill="#635f5f" stroke="#707070" stroke-width="1">
      <circle cx="7.5" cy="7.5" r="7.5" stroke="none"/>
      <circle cx="7.5" cy="7.5" r="7" fill="none"/>
    </g>
    <g id="Ellipse_380" data-name="Ellipse 380" transform="translate(760 63)" fill="#635f5f" stroke="#707070" stroke-width="1">
      <circle cx="7.5" cy="7.5" r="7.5" stroke="none"/>
      <circle cx="7.5" cy="7.5" r="7" fill="none"/>
    </g>
    <g id="Ellipse_392" data-name="Ellipse 392" transform="translate(760 93)" fill="#635f5f" stroke="#707070" stroke-width="1">
      <circle cx="7.5" cy="7.5" r="7.5" stroke="none"/>
      <circle cx="7.5" cy="7.5" r="7" fill="none"/>
    </g>
    <g id="Ellipse_404" data-name="Ellipse 404" transform="translate(760 123)" fill="#635f5f" stroke="#707070" stroke-width="1">
      <circle cx="7.5" cy="7.5" r="7.5" stroke="none"/>
      <circle cx="7.5" cy="7.5" r="7" fill="none"/>
    </g>
    <g id="Ellipse_297" data-name="Ellipse 297" transform="translate(40 3)" fill="#2cf3e6" stroke="#6b6a6a" stroke-width="1">
      <circle cx="7.5" cy="7.5" r="7.5" stroke="none"/>
      <circle cx="7.5" cy="7.5" r="7" fill="none"/>
    </g>
    <g id="Ellipse_312" data-name="Ellipse 312" transform="translate(40 33)" fill="#635f5f" stroke="#707070" stroke-width="1">
      <circle cx="7.5" cy="7.5" r="7.5" stroke="none"/>
      <circle cx="7.5" cy="7.5" r="7" fill="none"/>
    </g>
    <g id="Ellipse_324" data-name="Ellipse 324" transform="translate(40 63)" fill="#635f5f" stroke="#707070" stroke-width="1">
      <circle cx="7.5" cy="7.5" r="7.5" stroke="none"/>
      <circle cx="7.5" cy="7.5" r="7" fill="none"/>
    </g>
    <g id="Ellipse_336" data-name="Ellipse 336" transform="translate(40 93)" fill="#635f5f" stroke="#707070" stroke-width="1">
      <circle cx="7.5" cy="7.5" r="7.5" stroke="none"/>
      <circle cx="7.5" cy="7.5" r="7" fill="none"/>
    </g>
    <g id="Ellipse_348" data-name="Ellipse 348" transform="translate(40 123)" fill="#635f5f" stroke="#707070" stroke-width="1">
      <circle cx="7.5" cy="7.5" r="7.5" stroke="none"/>
      <circle cx="7.5" cy="7.5" r="7" fill="none"/>
    </g>
    <g id="Ellipse_360" data-name="Ellipse 360" transform="translate(472 3)" fill="#635f5f" stroke="#707070" stroke-width="1">
      <circle cx="7.5" cy="7.5" r="7.5" stroke="none"/>
      <circle cx="7.5" cy="7.5" r="7" fill="none"/>
    </g>
    <g id="Ellipse_372" data-name="Ellipse 372" transform="translate(472 33)" fill="#635f5f" stroke="#707070" stroke-width="1">
      <circle cx="7.5" cy="7.5" r="7.5" stroke="none"/>
      <circle cx="7.5" cy="7.5" r="7" fill="none"/>
    </g>
    <g id="Ellipse_389" data-name="Ellipse 389" transform="translate(472 63)" fill="#635f5f" stroke="#707070" stroke-width="1">
      <circle cx="7.5" cy="7.5" r="7.5" stroke="none"/>
      <circle cx="7.5" cy="7.5" r="7" fill="none"/>
    </g>
    <g id="Ellipse_401" data-name="Ellipse 401" transform="translate(472 93)" fill="#635f5f" stroke="#707070" stroke-width="1">
      <circle cx="7.5" cy="7.5" r="7.5" stroke="none"/>
      <circle cx="7.5" cy="7.5" r="7" fill="none"/>
    </g>
    <g id="Ellipse_413" data-name="Ellipse 413" transform="translate(472 123)" fill="#635f5f" stroke="#707070" stroke-width="1">
      <circle cx="7.5" cy="7.5" r="7.5" stroke="none"/>
      <circle cx="7.5" cy="7.5" r="7" fill="none"/>
    </g>
    <g id="Ellipse_306" data-name="Ellipse 306" transform="translate(256 3)" fill="#635f5f" stroke="#707070" stroke-width="1">
      <circle cx="7.5" cy="7.5" r="7.5" stroke="none"/>
      <circle cx="7.5" cy="7.5" r="7" fill="none"/>
    </g>
    <g id="Ellipse_313" data-name="Ellipse 313" transform="translate(256 33)" fill="#635f5f" stroke="#707070" stroke-width="1">
      <circle cx="7.5" cy="7.5" r="7.5" stroke="none"/>
      <circle cx="7.5" cy="7.5" r="7" fill="none"/>
    </g>
    <g id="Ellipse_325" data-name="Ellipse 325" transform="translate(256 63)" fill="#635f5f" stroke="#707070" stroke-width="1">
      <circle cx="7.5" cy="7.5" r="7.5" stroke="none"/>
      <circle cx="7.5" cy="7.5" r="7" fill="none"/>
    </g>
    <g id="Ellipse_337" data-name="Ellipse 337" transform="translate(256 93)" fill="#635f5f" stroke="#707070" stroke-width="1">
      <circle cx="7.5" cy="7.5" r="7.5" stroke="none"/>
      <circle cx="7.5" cy="7.5" r="7" fill="none"/>
    </g>
    <g id="Ellipse_349" data-name="Ellipse 349" transform="translate(256 123)" fill="#635f5f" stroke="#707070" stroke-width="1">
      <circle cx="7.5" cy="7.5" r="7.5" stroke="none"/>
      <circle cx="7.5" cy="7.5" r="7" fill="none"/>
    </g>
    <g id="Ellipse_361" data-name="Ellipse 361" transform="translate(688 3)" fill="#635f5f" stroke="#707070" stroke-width="1">
      <circle cx="7.5" cy="7.5" r="7.5" stroke="none"/>
      <circle cx="7.5" cy="7.5" r="7" fill="none"/>
    </g>
    <g id="Ellipse_373" data-name="Ellipse 373" transform="translate(688 33)" fill="#635f5f" stroke="#707070" stroke-width="1">
      <circle cx="7.5" cy="7.5" r="7.5" stroke="none"/>
      <circle cx="7.5" cy="7.5" r="7" fill="none"/>
    </g>
    <g id="Ellipse_385" data-name="Ellipse 385" transform="translate(688 63)" fill="#635f5f" stroke="#707070" stroke-width="1">
      <circle cx="7.5" cy="7.5" r="7.5" stroke="none"/>
      <circle cx="7.5" cy="7.5" r="7" fill="none"/>
    </g>
    <g id="Ellipse_397" data-name="Ellipse 397" transform="translate(688 93)" fill="#635f5f" stroke="#707070" stroke-width="1">
      <circle cx="7.5" cy="7.5" r="7.5" stroke="none"/>
      <circle cx="7.5" cy="7.5" r="7" fill="none"/>
    </g>
    <g id="Ellipse_409" data-name="Ellipse 409" transform="translate(688 123)" fill="#635f5f" stroke="#707070" stroke-width="1">
      <circle cx="7.5" cy="7.5" r="7.5" stroke="none"/>
      <circle cx="7.5" cy="7.5" r="7" fill="none"/>
    </g>
    <g id="Ellipse_301" data-name="Ellipse 301" transform="translate(148 3)" fill="#635f5f" stroke="#707070" stroke-width="1">
      <circle cx="7.5" cy="7.5" r="7.5" stroke="none"/>
      <circle cx="7.5" cy="7.5" r="7" fill="none"/>
    </g>
    <g id="Ellipse_314" data-name="Ellipse 314" transform="translate(148 33)" fill="#635f5f" stroke="#707070" stroke-width="1">
      <circle cx="7.5" cy="7.5" r="7.5" stroke="none"/>
      <circle cx="7.5" cy="7.5" r="7" fill="none"/>
    </g>
    <g id="Ellipse_326" data-name="Ellipse 326" transform="translate(148 63)" fill="#635f5f" stroke="#707070" stroke-width="1">
      <circle cx="7.5" cy="7.5" r="7.5" stroke="none"/>
      <circle cx="7.5" cy="7.5" r="7" fill="none"/>
    </g>
    <g id="Ellipse_338" data-name="Ellipse 338" transform="translate(148 93)" fill="#635f5f" stroke="#707070" stroke-width="1">
      <circle cx="7.5" cy="7.5" r="7.5" stroke="none"/>
      <circle cx="7.5" cy="7.5" r="7" fill="none"/>
    </g>
    <g id="Ellipse_350" data-name="Ellipse 350" transform="translate(148 123)" fill="#635f5f" stroke="#707070" stroke-width="1">
      <circle cx="7.5" cy="7.5" r="7.5" stroke="none"/>
      <circle cx="7.5" cy="7.5" r="7" fill="none"/>
    </g>
    <g id="Ellipse_362" data-name="Ellipse 362" transform="translate(580 3)" fill="#635f5f" stroke="#707070" stroke-width="1">
      <circle cx="7.5" cy="7.5" r="7.5" stroke="none"/>
      <circle cx="7.5" cy="7.5" r="7" fill="none"/>
    </g>
    <g id="Ellipse_374" data-name="Ellipse 374" transform="translate(580 33)" fill="#635f5f" stroke="#707070" stroke-width="1">
      <circle cx="7.5" cy="7.5" r="7.5" stroke="none"/>
      <circle cx="7.5" cy="7.5" r="7" fill="none"/>
    </g>
    <g id="Ellipse_388" data-name="Ellipse 388" transform="translate(580 63)" fill="#635f5f" stroke="#707070" stroke-width="1">
      <circle cx="7.5" cy="7.5" r="7.5" stroke="none"/>
      <circle cx="7.5" cy="7.5" r="7" fill="none"/>
    </g>
    <g id="Ellipse_400" data-name="Ellipse 400" transform="translate(580 93)" fill="#635f5f" stroke="#707070" stroke-width="1">
      <circle cx="7.5" cy="7.5" r="7.5" stroke="none"/>
      <circle cx="7.5" cy="7.5" r="7" fill="none"/>
    </g>
    <g id="Ellipse_412" data-name="Ellipse 412" transform="translate(580 123)" fill="#635f5f" stroke="#707070" stroke-width="1">
      <circle cx="7.5" cy="7.5" r="7.5" stroke="none"/>
      <circle cx="7.5" cy="7.5" r="7" fill="none"/>
    </g>
    <g id="Ellipse_303" data-name="Ellipse 303" transform="translate(364 3)" fill="#635f5f" stroke="#707070" stroke-width="1">
      <circle cx="7.5" cy="7.5" r="7.5" stroke="none"/>
      <circle cx="7.5" cy="7.5" r="7" fill="none"/>
    </g>
    <g id="Ellipse_315" data-name="Ellipse 315" transform="translate(364 33)" fill="#635f5f" stroke="#707070" stroke-width="1">
      <circle cx="7.5" cy="7.5" r="7.5" stroke="none"/>
      <circle cx="7.5" cy="7.5" r="7" fill="none"/>
    </g>
    <g id="Ellipse_327" data-name="Ellipse 327" transform="translate(364 63)" fill="#635f5f" stroke="#707070" stroke-width="1">
      <circle cx="7.5" cy="7.5" r="7.5" stroke="none"/>
      <circle cx="7.5" cy="7.5" r="7" fill="none"/>
    </g>
    <g id="Ellipse_339" data-name="Ellipse 339" transform="translate(364 93)" fill="#635f5f" stroke="#707070" stroke-width="1">
      <circle cx="7.5" cy="7.5" r="7.5" stroke="none"/>
      <circle cx="7.5" cy="7.5" r="7" fill="none"/>
    </g>
    <g id="Ellipse_351" data-name="Ellipse 351" transform="translate(364 123)" fill="#635f5f" stroke="#707070" stroke-width="1">
      <circle cx="7.5" cy="7.5" r="7.5" stroke="none"/>
      <circle cx="7.5" cy="7.5" r="7" fill="none"/>
    </g>
    <g id="Ellipse_363" data-name="Ellipse 363" transform="translate(796 3)" fill="#635f5f" stroke="#707070" stroke-width="1">
      <circle cx="7.5" cy="7.5" r="7.5" stroke="none"/>
      <circle cx="7.5" cy="7.5" r="7" fill="none"/>
    </g>
    <g id="Ellipse_375" data-name="Ellipse 375" transform="translate(796 33)" fill="#635f5f" stroke="#707070" stroke-width="1">
      <circle cx="7.5" cy="7.5" r="7.5" stroke="none"/>
      <circle cx="7.5" cy="7.5" r="7" fill="none"/>
    </g>
    <g id="Ellipse_381" data-name="Ellipse 381" transform="translate(796 63)" fill="#635f5f" stroke="#707070" stroke-width="1">
      <circle cx="7.5" cy="7.5" r="7.5" stroke="none"/>
      <circle cx="7.5" cy="7.5" r="7" fill="none"/>
    </g>
    <g id="Ellipse_393" data-name="Ellipse 393" transform="translate(796 93)" fill="#635f5f" stroke="#707070" stroke-width="1">
      <circle cx="7.5" cy="7.5" r="7.5" stroke="none"/>
      <circle cx="7.5" cy="7.5" r="7" fill="none"/>
    </g>
    <g id="Ellipse_405" data-name="Ellipse 405" transform="translate(796 123)" fill="#635f5f" stroke="#707070" stroke-width="1">
      <circle cx="7.5" cy="7.5" r="7.5" stroke="none"/>
      <circle cx="7.5" cy="7.5" r="7" fill="none"/>
    </g>
    <g id="Ellipse_298" data-name="Ellipse 298" transform="translate(76 3)" fill="#2cf3e6" stroke="#6b6a6a" stroke-width="1">
      <circle cx="7.5" cy="7.5" r="7.5" stroke="none"/>
      <circle cx="7.5" cy="7.5" r="7" fill="none"/>
    </g>
    <g id="Ellipse_316" data-name="Ellipse 316" transform="translate(76 33)" fill="#635f5f" stroke="#707070" stroke-width="1">
      <circle cx="7.5" cy="7.5" r="7.5" stroke="none"/>
      <circle cx="7.5" cy="7.5" r="7" fill="none"/>
    </g>
    <g id="Ellipse_328" data-name="Ellipse 328" transform="translate(76 63)" fill="#635f5f" stroke="#707070" stroke-width="1">
      <circle cx="7.5" cy="7.5" r="7.5" stroke="none"/>
      <circle cx="7.5" cy="7.5" r="7" fill="none"/>
    </g>
    <g id="Ellipse_340" data-name="Ellipse 340" transform="translate(76 93)" fill="#635f5f" stroke="#707070" stroke-width="1">
      <circle cx="7.5" cy="7.5" r="7.5" stroke="none"/>
      <circle cx="7.5" cy="7.5" r="7" fill="none"/>
    </g>
    <g id="Ellipse_352" data-name="Ellipse 352" transform="translate(76 123)" fill="#635f5f" stroke="#707070" stroke-width="1">
      <circle cx="7.5" cy="7.5" r="7.5" stroke="none"/>
      <circle cx="7.5" cy="7.5" r="7" fill="none"/>
    </g>
    <g id="Ellipse_364" data-name="Ellipse 364" transform="translate(508 3)" fill="#635f5f" stroke="#707070" stroke-width="1">
      <circle cx="7.5" cy="7.5" r="7.5" stroke="none"/>
      <circle cx="7.5" cy="7.5" r="7" fill="none"/>
    </g>
    <g id="Ellipse_376" data-name="Ellipse 376" transform="translate(508 33)" fill="#635f5f" stroke="#707070" stroke-width="1">
      <circle cx="7.5" cy="7.5" r="7.5" stroke="none"/>
      <circle cx="7.5" cy="7.5" r="7" fill="none"/>
    </g>
    <g id="Ellipse_390" data-name="Ellipse 390" transform="translate(508 63)" fill="#635f5f" stroke="#707070" stroke-width="1">
      <circle cx="7.5" cy="7.5" r="7.5" stroke="none"/>
      <circle cx="7.5" cy="7.5" r="7" fill="none"/>
    </g>
    <g id="Ellipse_402" data-name="Ellipse 402" transform="translate(508 93)" fill="#635f5f" stroke="#707070" stroke-width="1">
      <circle cx="7.5" cy="7.5" r="7.5" stroke="none"/>
      <circle cx="7.5" cy="7.5" r="7" fill="none"/>
    </g>
    <g id="Ellipse_414" data-name="Ellipse 414" transform="translate(508 123)" fill="#635f5f" stroke="#707070" stroke-width="1">
      <circle cx="7.5" cy="7.5" r="7.5" stroke="none"/>
      <circle cx="7.5" cy="7.5" r="7" fill="none"/>
    </g>
    <g id="Ellipse_307" data-name="Ellipse 307" transform="translate(292 3)" fill="#635f5f" stroke="#707070" stroke-width="1">
      <circle cx="7.5" cy="7.5" r="7.5" stroke="none"/>
      <circle cx="7.5" cy="7.5" r="7" fill="none"/>
    </g>
    <g id="Ellipse_317" data-name="Ellipse 317" transform="translate(292 33)" fill="#635f5f" stroke="#707070" stroke-width="1">
      <circle cx="7.5" cy="7.5" r="7.5" stroke="none"/>
      <circle cx="7.5" cy="7.5" r="7" fill="none"/>
    </g>
    <g id="Ellipse_329" data-name="Ellipse 329" transform="translate(292 63)" fill="#635f5f" stroke="#707070" stroke-width="1">
      <circle cx="7.5" cy="7.5" r="7.5" stroke="none"/>
      <circle cx="7.5" cy="7.5" r="7" fill="none"/>
    </g>
    <g id="Ellipse_341" data-name="Ellipse 341" transform="translate(292 93)" fill="#635f5f" stroke="#707070" stroke-width="1">
      <circle cx="7.5" cy="7.5" r="7.5" stroke="none"/>
      <circle cx="7.5" cy="7.5" r="7" fill="none"/>
    </g>
    <g id="Ellipse_353" data-name="Ellipse 353" transform="translate(292 123)" fill="#635f5f" stroke="#707070" stroke-width="1">
      <circle cx="7.5" cy="7.5" r="7.5" stroke="none"/>
      <circle cx="7.5" cy="7.5" r="7" fill="none"/>
    </g>
    <g id="Ellipse_365" data-name="Ellipse 365" transform="translate(724 3)" fill="#635f5f" stroke="#707070" stroke-width="1">
      <circle cx="7.5" cy="7.5" r="7.5" stroke="none"/>
      <circle cx="7.5" cy="7.5" r="7" fill="none"/>
    </g>
    <g id="Ellipse_377" data-name="Ellipse 377" transform="translate(724 33)" fill="#635f5f" stroke="#707070" stroke-width="1">
      <circle cx="7.5" cy="7.5" r="7.5" stroke="none"/>
      <circle cx="7.5" cy="7.5" r="7" fill="none"/>
    </g>
    <g id="Ellipse_382" data-name="Ellipse 382" transform="translate(724 63)" fill="#635f5f" stroke="#707070" stroke-width="1">
      <circle cx="7.5" cy="7.5" r="7.5" stroke="none"/>
      <circle cx="7.5" cy="7.5" r="7" fill="none"/>
    </g>
    <g id="Ellipse_394" data-name="Ellipse 394" transform="translate(724 93)" fill="#635f5f" stroke="#707070" stroke-width="1">
      <circle cx="7.5" cy="7.5" r="7.5" stroke="none"/>
      <circle cx="7.5" cy="7.5" r="7" fill="none"/>
    </g>
    <g id="Ellipse_406" data-name="Ellipse 406" transform="translate(724 123)" fill="#635f5f" stroke="#707070" stroke-width="1">
      <circle cx="7.5" cy="7.5" r="7.5" stroke="none"/>
      <circle cx="7.5" cy="7.5" r="7" fill="none"/>
    </g>
    <g id="Ellipse_299" data-name="Ellipse 299" transform="translate(184 3)" fill="#635f5f" stroke="#707070" stroke-width="1">
      <circle cx="7.5" cy="7.5" r="7.5" stroke="none"/>
      <circle cx="7.5" cy="7.5" r="7" fill="none"/>
    </g>
    <g id="Ellipse_318" data-name="Ellipse 318" transform="translate(184 33)" fill="#635f5f" stroke="#707070" stroke-width="1">
      <circle cx="7.5" cy="7.5" r="7.5" stroke="none"/>
      <circle cx="7.5" cy="7.5" r="7" fill="none"/>
    </g>
    <g id="Ellipse_330" data-name="Ellipse 330" transform="translate(184 63)" fill="#635f5f" stroke="#707070" stroke-width="1">
      <circle cx="7.5" cy="7.5" r="7.5" stroke="none"/>
      <circle cx="7.5" cy="7.5" r="7" fill="none"/>
    </g>
    <g id="Ellipse_342" data-name="Ellipse 342" transform="translate(184 93)" fill="#635f5f" stroke="#707070" stroke-width="1">
      <circle cx="7.5" cy="7.5" r="7.5" stroke="none"/>
      <circle cx="7.5" cy="7.5" r="7" fill="none"/>
    </g>
    <g id="Ellipse_354" data-name="Ellipse 354" transform="translate(184 123)" fill="#635f5f" stroke="#707070" stroke-width="1">
      <circle cx="7.5" cy="7.5" r="7.5" stroke="none"/>
      <circle cx="7.5" cy="7.5" r="7" fill="none"/>
    </g>
    <g id="Ellipse_366" data-name="Ellipse 366" transform="translate(616 3)" fill="#635f5f" stroke="#707070" stroke-width="1">
      <circle cx="7.5" cy="7.5" r="7.5" stroke="none"/>
      <circle cx="7.5" cy="7.5" r="7" fill="none"/>
    </g>
    <g id="Ellipse_378" data-name="Ellipse 378" transform="translate(616 33)" fill="#635f5f" stroke="#707070" stroke-width="1">
      <circle cx="7.5" cy="7.5" r="7.5" stroke="none"/>
      <circle cx="7.5" cy="7.5" r="7" fill="none"/>
    </g>
    <g id="Ellipse_386" data-name="Ellipse 386" transform="translate(616 63)" fill="#635f5f" stroke="#707070" stroke-width="1">
      <circle cx="7.5" cy="7.5" r="7.5" stroke="none"/>
      <circle cx="7.5" cy="7.5" r="7" fill="none"/>
    </g>
    <g id="Ellipse_398" data-name="Ellipse 398" transform="translate(616 93)" fill="#635f5f" stroke="#707070" stroke-width="1">
      <circle cx="7.5" cy="7.5" r="7.5" stroke="none"/>
      <circle cx="7.5" cy="7.5" r="7" fill="none"/>
    </g>
    <g id="Ellipse_410" data-name="Ellipse 410" transform="translate(616 123)" fill="#635f5f" stroke="#707070" stroke-width="1">
      <circle cx="7.5" cy="7.5" r="7.5" stroke="none"/>
      <circle cx="7.5" cy="7.5" r="7" fill="none"/>
    </g>
    <g id="Ellipse_304" data-name="Ellipse 304" transform="translate(400 3)" fill="#635f5f" stroke="#707070" stroke-width="1">
      <circle cx="7.5" cy="7.5" r="7.5" stroke="none"/>
      <circle cx="7.5" cy="7.5" r="7" fill="none"/>
    </g>
    <g id="Ellipse_319" data-name="Ellipse 319" transform="translate(400 33)" fill="#635f5f" stroke="#707070" stroke-width="1">
      <circle cx="7.5" cy="7.5" r="7.5" stroke="none"/>
      <circle cx="7.5" cy="7.5" r="7" fill="none"/>
    </g>
    <g id="Ellipse_331" data-name="Ellipse 331" transform="translate(400 63)" fill="#635f5f" stroke="#707070" stroke-width="1">
      <circle cx="7.5" cy="7.5" r="7.5" stroke="none"/>
      <circle cx="7.5" cy="7.5" r="7" fill="none"/>
    </g>
    <g id="Ellipse_343" data-name="Ellipse 343" transform="translate(400 93)" fill="#635f5f" stroke="#707070" stroke-width="1">
      <circle cx="7.5" cy="7.5" r="7.5" stroke="none"/>
      <circle cx="7.5" cy="7.5" r="7" fill="none"/>
    </g>
    <g id="Ellipse_355" data-name="Ellipse 355" transform="translate(400 123)" fill="#635f5f" stroke="#707070" stroke-width="1">
      <circle cx="7.5" cy="7.5" r="7.5" stroke="none"/>
      <circle cx="7.5" cy="7.5" r="7" fill="none"/>
    </g>
    <g id="Ellipse_367" data-name="Ellipse 367" transform="translate(832 3)" fill="#635f5f" stroke="#707070" stroke-width="1">
      <circle cx="7.5" cy="7.5" r="7.5" stroke="none"/>
      <circle cx="7.5" cy="7.5" r="7" fill="none"/>
    </g>
    <g id="Ellipse_379" data-name="Ellipse 379" transform="translate(832 33)" fill="#635f5f" stroke="#707070" stroke-width="1">
      <circle cx="7.5" cy="7.5" r="7.5" stroke="none"/>
      <circle cx="7.5" cy="7.5" r="7" fill="none"/>
    </g>
    <g id="Ellipse_383" data-name="Ellipse 383" transform="translate(832 63)" fill="#635f5f" stroke="#707070" stroke-width="1">
      <circle cx="7.5" cy="7.5" r="7.5" stroke="none"/>
      <circle cx="7.5" cy="7.5" r="7" fill="none"/>
    </g>
    <g id="Ellipse_395" data-name="Ellipse 395" transform="translate(832 93)" fill="#635f5f" stroke="#707070" stroke-width="1">
      <circle cx="7.5" cy="7.5" r="7.5" stroke="none"/>
      <circle cx="7.5" cy="7.5" r="7" fill="none"/>
    </g>
    <g id="Ellipse_407" data-name="Ellipse 407" transform="translate(832 123)" fill="#635f5f" stroke="#707070" stroke-width="1">
      <circle cx="7.5" cy="7.5" r="7.5" stroke="none"/>
      <circle cx="7.5" cy="7.5" r="7" fill="none"/>
    </g>
  </g>
</svg>
