<svg xmlns="http://www.w3.org/2000/svg" xmlns:xlink="http://www.w3.org/1999/xlink" width="942" height="474" viewBox="0 0 942 474">
  <defs>
    <clipPath id="clip-town2">
      <rect width="942" height="474"/>
    </clipPath>
  </defs>
  <g id="town2" clip-path="url(#clip-town2)">
    <g id="town" transform="translate(34 -22)">
      <path id="Path_66" data-name="Path 66" d="M153.891,311.384l67.861-80.817H355.171L436.7,309.983l-1.647,1.059h.588V476.227H153.984V311.042Z" fill="#3f3d56"/>
      <rect id="Rectangle_377" data-name="Rectangle 377" width="15.383" height="53.249" transform="translate(210.102 276.248) rotate(180)" fill="#3f3d56"/>
      <path id="Path_67" data-name="Path 67" d="M220.694,229.508l83.651,98.073V476.227H153.984v-167.3Z" fill="#7d8787"/>
      <rect id="Rectangle_378" data-name="Rectangle 378" width="30.708" height="31.398" transform="translate(254.306 347.044)" fill="#3f3d56"/>
      <rect id="Rectangle_379" data-name="Rectangle 379" width="30.708" height="31.398" transform="translate(254.306 389.767)" fill="#3f3d56"/>
      <rect id="Rectangle_380" data-name="Rectangle 380" width="30.708" height="31.398" transform="translate(254.306 347.044)" fill="#1f1f1d"/>
      <rect id="Rectangle_381" data-name="Rectangle 381" width="30.708" height="31.398" transform="translate(254.306 389.767)" fill="#1f1f1d"/>
      <rect id="Rectangle_382" data-name="Rectangle 382" width="30.708" height="31.398" transform="translate(211.838 347.044)" fill="#3f3d56"/>
      <rect id="Rectangle_383" data-name="Rectangle 383" width="30.708" height="31.398" transform="translate(211.838 389.767)" fill="#3f3d56"/>
      <rect id="Rectangle_384" data-name="Rectangle 384" width="30.708" height="31.398" transform="translate(211.838 347.044)" fill="#1f1f1d"/>
      <rect id="Rectangle_385" data-name="Rectangle 385" width="30.708" height="31.398" transform="translate(211.838 389.767)" fill="#1f1f1d"/>
      <rect id="Rectangle_386" data-name="Rectangle 386" width="30.708" height="31.398" transform="translate(169.369 347.044)" fill="#3f3d56"/>
      <rect id="Rectangle_387" data-name="Rectangle 387" width="30.708" height="31.398" transform="translate(169.369 389.767)" fill="#3f3d56"/>
      <rect id="Rectangle_388" data-name="Rectangle 388" width="30.708" height="31.398" transform="translate(169.369 347.044)" fill="#1f1f1d"/>
      <rect id="Rectangle_389" data-name="Rectangle 389" width="30.708" height="31.398" transform="translate(169.369 389.767)" fill="#1f1f1d"/>
      <rect id="Rectangle_390" data-name="Rectangle 390" width="14" height="35" transform="translate(485 40)" fill="#7d8787"/>
      <rect id="Rectangle_391" data-name="Rectangle 391" width="119" height="405" transform="translate(379 72)" fill="#7d8787"/>
      <rect id="Rectangle_392" data-name="Rectangle 392" width="48" height="405" transform="translate(498 72)" fill="#3f3d56"/>
      <rect id="Rectangle_393" data-name="Rectangle 393" width="18" height="18" transform="translate(400.5 107)" fill="#1f1f1d"/>
      <rect id="Rectangle_394" data-name="Rectangle 394" width="18" height="18" transform="translate(429.5 107)" fill="#e2ec59"/>
      <rect id="Rectangle_395" data-name="Rectangle 395" width="18" height="18" transform="translate(458.5 107)" fill="#1f1f1d"/>
      <rect id="Rectangle_396" data-name="Rectangle 396" width="18" height="18" transform="translate(401 148)" fill="#1f1f1d"/>
      <rect id="Rectangle_397" data-name="Rectangle 397" width="18" height="18" transform="translate(430 148)" fill="#1f1f1d"/>
      <rect id="Rectangle_398" data-name="Rectangle 398" width="18" height="18" transform="translate(459 148)" fill="#1f1f1d"/>
      <rect id="Rectangle_399" data-name="Rectangle 399" width="18" height="18" transform="translate(401.5 189)" fill="#1f1f1d"/>
      <rect id="Rectangle_400" data-name="Rectangle 400" width="18" height="18" transform="translate(430.5 189)" fill="#1f1f1d"/>
      <rect id="Rectangle_401" data-name="Rectangle 401" width="18" height="18" transform="translate(459.5 189)" fill="#f1fb65"/>
      <rect id="Rectangle_402" data-name="Rectangle 402" width="18" height="18" transform="translate(402 230)" fill="#1f1f1d"/>
      <rect id="Rectangle_403" data-name="Rectangle 403" width="18" height="18" transform="translate(431 230)" fill="#1f1f1d"/>
      <rect id="Rectangle_404" data-name="Rectangle 404" width="18" height="18" transform="translate(460 230)" fill="#1f1f1d"/>
      <rect id="Rectangle_405" data-name="Rectangle 405" width="18" height="18" transform="translate(402.5 271)" fill="#1f1f1d"/>
      <rect id="Rectangle_406" data-name="Rectangle 406" width="18" height="18" transform="translate(431.5 271)" fill="#f1fb65"/>
      <rect id="Rectangle_407" data-name="Rectangle 407" width="18" height="18" transform="translate(460.5 271)" fill="#1f1f1d"/>
      <rect id="Rectangle_408" data-name="Rectangle 408" width="18" height="18" transform="translate(403 312)" fill="#1f1f1d"/>
      <rect id="Rectangle_409" data-name="Rectangle 409" width="18" height="18" transform="translate(432 312)" fill="#1f1f1d"/>
      <rect id="Rectangle_410" data-name="Rectangle 410" width="18" height="18" transform="translate(461 312)" fill="#1f1f1d"/>
      <rect id="Rectangle_411" data-name="Rectangle 411" width="18" height="18" transform="translate(403.5 353)" fill="#1f1f1d"/>
      <rect id="Rectangle_412" data-name="Rectangle 412" width="18" height="18" transform="translate(432.5 353)" fill="#1f1f1d"/>
      <rect id="Rectangle_413" data-name="Rectangle 413" width="18" height="18" transform="translate(461.5 353)" fill="#1f1f1d"/>
      <rect id="Rectangle_414" data-name="Rectangle 414" width="18" height="18" transform="translate(404 394)" fill="#1f1f1d"/>
      <rect id="Rectangle_415" data-name="Rectangle 415" width="18" height="18" transform="translate(433 394)" fill="#1f1f1d"/>
      <rect id="Rectangle_417" data-name="Rectangle 417" width="18" height="18" transform="translate(462 394)" fill="#1f1f1d"/>
      <rect id="Rectangle_418" data-name="Rectangle 418" width="8" height="34" transform="translate(498 40)" fill="#3f3d56"/>
      <rect id="Rectangle_419" data-name="Rectangle 419" width="14" height="20.744" transform="translate(635 218)" fill="#7d8787"/>
      <rect id="Rectangle_420" data-name="Rectangle 420" width="119" height="240.034" transform="translate(529 236.966)" fill="#7d8787"/>
      <rect id="Rectangle_421" data-name="Rectangle 421" width="48" height="240.034" transform="translate(648 236.966)" fill="#3f3d56"/>
      <rect id="Rectangle_422" data-name="Rectangle 422" width="18" height="18" transform="translate(552.5 271)" fill="#1f1f1d"/>
      <rect id="Rectangle_423" data-name="Rectangle 423" width="18" height="18" transform="translate(581.5 271)" fill="#1f1f1d"/>
      <rect id="Rectangle_424" data-name="Rectangle 424" width="18" height="18" transform="translate(610.5 271)" fill="#1f1f1d"/>
      <rect id="Rectangle_425" data-name="Rectangle 425" width="18" height="18" transform="translate(553 312)" fill="#1f1f1d"/>
      <rect id="Rectangle_426" data-name="Rectangle 426" width="18" height="18" transform="translate(582 312)" fill="#f1fb65"/>
      <rect id="Rectangle_427" data-name="Rectangle 427" width="18" height="18" transform="translate(611 312)" fill="#1f1f1d"/>
      <rect id="Rectangle_428" data-name="Rectangle 428" width="18" height="18" transform="translate(553.5 353)" fill="#1f1f1d"/>
      <rect id="Rectangle_429" data-name="Rectangle 429" width="18" height="18" transform="translate(582.5 353)" fill="#1f1f1d"/>
      <rect id="Rectangle_430" data-name="Rectangle 430" width="18" height="18" transform="translate(611.5 353)" fill="#1f1f1d"/>
      <rect id="Rectangle_431" data-name="Rectangle 431" width="18" height="18" transform="translate(554 394)" fill="#1f1f1d"/>
      <rect id="Rectangle_432" data-name="Rectangle 432" width="18" height="18" transform="translate(583 394)" fill="#1f1f1d"/>
      <rect id="Rectangle_434" data-name="Rectangle 434" width="18" height="18" transform="translate(612 394)" fill="#1f1f1d"/>
      <rect id="Rectangle_435" data-name="Rectangle 435" width="8" height="20.151" transform="translate(648 218)" fill="#3f3d56"/>
      <rect id="Rectangle_436" data-name="Rectangle 436" width="888" height="2.241" transform="translate(0.244 475.792)" fill="#3f3d56"/>
      <path id="Path_80" data-name="Path 80" d="M106,456H44v2h9.669v19h2V458H93.331v19h2V458H106Z" fill="#3f3d56"/>
      <path id="Path_81" data-name="Path 81" d="M324.878,674.984a13.919,13.919,0,0,0-6.971,1.871,14.982,14.982,0,0,0-25.029,11.129h45.949a13.991,13.991,0,0,0-13.949-13Z" transform="translate(-155.878 -210.984)" fill="#3f3d56"/>
      <path id="Path_82" data-name="Path 82" d="M561.878,674.984a13.919,13.919,0,0,0-6.971,1.871,14.982,14.982,0,0,0-25.029,11.129h45.95a13.99,13.99,0,0,0-13.95-13Z" transform="translate(-155.878 -210.984)" fill="#3f3d56"/>
      <path id="Path_83" data-name="Path 83" d="M716.878,674.984a13.919,13.919,0,0,0-6.971,1.871,14.982,14.982,0,0,0-25.029,11.129h45.95a13.99,13.99,0,0,0-13.95-13Z" transform="translate(-155.878 -210.984)" fill="#3f3d56"/>
      <path id="Path_86" data-name="Path 86" d="M129,407H113v16h7.417v53.912h2V423H129Z" fill="#3f3d56"/>
      <rect id="Rectangle_440" data-name="Rectangle 440" width="62" height="2" transform="translate(44.122 450.016)" fill="#3f3d56"/>
      <rect id="Rectangle_441" data-name="Rectangle 441" width="62" height="2" transform="translate(44.122 445.016)" fill="#3f3d56"/>
      <rect id="Rectangle_442" data-name="Rectangle 442" width="62" height="2" transform="translate(44.122 440.016)" fill="#3f3d56"/>
    </g>
  </g>
</svg>
