<svg xmlns="http://www.w3.org/2000/svg" xmlns:xlink="http://www.w3.org/1999/xlink" width="241" height="115" viewBox="0 0 241 115">
  <defs>
    <clipPath id="clip-legend-occupant">
      <rect width="241" height="115"/>
    </clipPath>
  </defs>
  <g id="legend-occupant" clip-path="url(#clip-legend-occupant)">
    <rect width="241" height="115" fill="#fff"/>
    <text id="Each_dot_represents_a_tenant" data-name="Each dot represents a tenant" transform="translate(20 25)" font-size="12" font-family="WorkSans-Regular, Work Sans"><tspan x="0" y="0">Each </tspan><tspan y="0" font-family="WorkSans-SemiBold, Work Sans" font-weight="600">dot represents a tenant</tspan></text>
    <text id="Adult_tenant" data-name="Adult tenant" transform="translate(21 41)" fill="#4b4242" font-size="12" font-family="WorkSans-Regular, Work Sans"><tspan x="0" y="11">Adult </tspan></text>
    <g id="Ellipse_165" data-name="Ellipse 165" transform="translate(95 42)" fill="#72b1f0" stroke="#000" stroke-width="1">
      <circle cx="5" cy="5" r="5" stroke="none"/>
      <circle cx="5" cy="5" r="4.5" fill="none"/>
    </g>
    <text id="Child_tenant" data-name="Child tenant" transform="translate(133 41)" fill="#4b4242" font-size="12" font-family="WorkSans-Regular, Work Sans"><tspan x="0" y="11">Child </tspan></text>
    <g id="Ellipse_168" data-name="Ellipse 168" transform="translate(174 42)" fill="#d9ecff" stroke="#000" stroke-width="1">
      <circle cx="5" cy="5" r="5" stroke="none"/>
      <circle cx="5" cy="5" r="4.5" fill="none"/>
    </g>
    <text id="Partnered_Couple" data-name="Partnered Couple" transform="translate(20 71)" fill="#4b4242" font-size="12" font-family="WorkSans-Regular, Work Sans"><tspan x="0" y="11">Partnered </tspan><tspan x="0" y="25">Couple</tspan></text>
    <g id="Ellipse_169" data-name="Ellipse 169" transform="translate(95 76)" fill="#72b1f0" stroke="#000" stroke-width="1">
      <circle cx="5" cy="5" r="5" stroke="none"/>
      <circle cx="5" cy="5" r="4.5" fill="none"/>
    </g>
    <g id="Ellipse_170" data-name="Ellipse 170" transform="translate(113 76)" fill="#72b1f0" stroke="#000" stroke-width="1">
      <circle cx="5" cy="5" r="5" stroke="none"/>
      <circle cx="5" cy="5" r="4.5" fill="none"/>
    </g>
    <line id="Line_45" data-name="Line 45" x2="7" transform="translate(105.5 81.5)" fill="none" stroke="#000" stroke-width="1"/>
  </g>
</svg>
